<?xml version="1.0" standalone="no"?>
<!DOCTYPE svg PUBLIC "-//W3C//DTD SVG 20010904//EN"
 "http://www.w3.org/TR/2001/REC-SVG-20010904/DTD/svg10.dtd">
<svg version="1.0" xmlns="http://www.w3.org/2000/svg"
 width="480.000000pt" height="360.000000pt" viewBox="0 0 480.000000 360.000000"
 preserveAspectRatio="xMidYMid meet">

<g transform="translate(0.000000,360.000000) scale(0.100000,-0.100000)"
fill="#000000" stroke="none">
<path d="M2157 3332 c-135 -147 -244 -268 -242 -270 1 -2 63 -8 136 -15 l134
-12 6 -270 c4 -148 7 -391 8 -539 l1 -269 -99 -102 c-66 -68 -109 -122 -130
-163 -34 -67 -61 -166 -61 -224 0 -72 -50 -109 -539 -392 -315 -182 -401 -224
-434 -209 -10 5 -39 49 -65 98 -26 49 -55 91 -64 93 -20 4 -52 -76 -148 -368
-76 -231 -97 -307 -87 -316 14 -14 658 -154 708 -154 19 0 19 1 0 38 -10 20
-35 64 -55 96 -75 124 -90 110 505 451 l391 223 71 -29 c150 -62 269 -61 412
5 l70 32 350 -193 c544 -300 579 -323 591 -368 4 -17 -8 -51 -45 -118 -68
-126 -68 -128 17 -112 90 18 314 68 495 111 131 32 147 38 147 56 0 42 -156
546 -205 663 -16 38 -18 39 -32 20 -8 -11 -28 -47 -45 -80 -42 -81 -86 -145
-102 -145 -59 0 -775 435 -913 555 -38 32 -43 42 -43 78 0 56 -41 167 -84 232
-19 29 -73 93 -120 142 l-85 89 7 526 c4 290 9 529 12 531 3 3 46 8 95 12 126
9 135 11 135 38 0 41 -66 120 -366 439 l-82 87 -245 -267z m391 -37 l140 -150
-52 -7 c-68 -8 -410 -8 -464 0 l-42 7 132 152 c73 84 136 152 139 150 4 -1 70
-69 147 -152z m-1675 -2532 c49 -86 207 -387 207 -395 0 -7 -228 30 -290 48
-73 21 -83 30 -75 71 19 104 96 353 109 353 2 0 24 -35 49 -77z m3126 59 c14
-26 101 -316 101 -336 0 -10 -15 -24 -37 -33 -48 -20 -256 -63 -306 -63 l-37
0 21 43 c59 117 233 407 244 407 2 0 9 -8 14 -18z"/>
<path d="M3123 2585 c-12 -9 -27 -32 -32 -51 -23 -84 24 -144 113 -144 29 0
61 6 72 15 48 33 36 142 -19 175 -38 24 -104 26 -134 5z"/>
<path d="M1443 2450 c-14 -6 -26 -23 -33 -49 -18 -68 4 -114 66 -136 77 -26
144 21 144 101 0 66 -31 94 -102 93 -29 0 -63 -4 -75 -9z"/>
<path d="M2850 2273 c-72 -65 -44 -153 99 -308 109 -119 149 -176 184 -269 49
-128 111 -190 183 -184 77 6 100 92 65 241 -39 165 -136 333 -256 446 -111
103 -212 130 -275 74z"/>
<path d="M3448 2283 c-50 -31 -63 -101 -28 -146 42 -53 139 -59 186 -12 19 19
24 35 24 75 0 72 -29 100 -102 100 -32 0 -64 -7 -80 -17z"/>
<path d="M1749 2197 c-141 -117 -228 -230 -294 -384 -101 -232 -51 -412 104
-378 68 15 141 126 141 215 0 49 26 135 58 190 14 25 58 79 98 121 78 82 91
113 81 192 -4 30 -15 50 -37 70 -46 41 -75 36 -151 -26z"/>
<path d="M1151 2124 c-50 -42 -51 -134 -1 -179 31 -28 100 -31 132 -6 54 43
61 139 13 187 -34 34 -102 33 -144 -2z"/>
<path d="M3579 1885 c-50 -27 -63 -111 -26 -166 40 -60 147 -65 189 -9 42 58
27 153 -28 179 -34 15 -103 13 -135 -4z"/>
<path d="M1065 1713 c-32 -8 -44 -22 -55 -64 -26 -95 68 -161 160 -114 79 41
61 150 -28 175 -39 10 -45 11 -77 3z"/>
<path d="M2046 730 c-45 -40 -70 -93 -62 -134 19 -101 222 -174 456 -163 132
6 208 24 300 70 76 38 105 73 105 127 0 67 -70 120 -159 120 -15 0 -76 -12
-135 -27 -77 -19 -133 -27 -206 -27 -93 -1 -105 1 -169 32 -37 17 -74 32 -82
32 -7 0 -29 -14 -48 -30z"/>
<path d="M2801 334 c-35 -29 -41 -71 -17 -128 35 -84 122 -99 183 -32 36 39
43 83 21 131 -27 59 -133 75 -187 29z"/>
<path d="M2032 333 c-12 -2 -38 -19 -57 -37 -30 -29 -35 -40 -35 -79 0 -81 59
-127 137 -105 74 20 104 85 73 155 -16 37 -63 76 -87 72 -4 -1 -18 -4 -31 -6z"/>
<path d="M2413 230 c-76 -31 -72 -174 7 -215 43 -22 76 -18 111 13 24 21 32
38 36 75 6 54 -10 87 -60 117 -34 21 -59 24 -94 10z"/>
</g>
</svg>
