<?xml version="1.0" standalone="no"?>
<!DOCTYPE svg PUBLIC "-//W3C//DTD SVG 20010904//EN"
 "http://www.w3.org/TR/2001/REC-SVG-20010904/DTD/svg10.dtd">
<svg version="1.0" xmlns="http://www.w3.org/2000/svg"
 width="512.000000pt" height="512.000000pt" viewBox="0 0 512.000000 512.000000"
 preserveAspectRatio="xMidYMid meet">

<g transform="translate(0.000000,512.000000) scale(0.100000,-0.100000)"
fill="#000000" stroke="none">
<path d="M2321 5110 c-766 -75 -1462 -491 -1893 -1135 -156 -233 -302 -572
-362 -840 -49 -218 -60 -325 -60 -575 0 -250 11 -357 60 -575 79 -355 272
-749 509 -1040 92 -114 274 -294 387 -384 287 -229 675 -417 1023 -495 218
-49 325 -60 575 -60 250 0 357 11 575 60 261 58 603 204 828 353 389 259 688
599 893 1016 125 255 196 484 241 775 24 161 24 539 0 700 -45 291 -116 520
-241 775 -254 518 -653 917 -1171 1171 -253 123 -486 196 -765 239 -126 19
-468 27 -599 15z m-117 -1256 c14 -14 16 -145 16 -1294 0 -1149 -2 -1280 -16
-1294 -13 -14 -54 -16 -294 -16 -266 0 -280 1 -290 19 -7 13 -10 435 -10 1295
0 1145 2 1276 16 1290 13 14 54 16 289 16 235 0 276 -2 289 -16z m1297 -1 c12
-13 14 -225 14 -1293 0 -1068 -2 -1280 -14 -1293 -12 -15 -45 -17 -292 -17
-239 0 -280 2 -293 16 -14 14 -16 145 -16 1294 0 1149 2 1280 16 1294 13 14
54 16 293 16 247 0 280 -2 292 -17z"/>
</g>
</svg>
