<?xml version="1.0" standalone="no"?>
<!DOCTYPE svg PUBLIC "-//W3C//DTD SVG 20010904//EN"
 "http://www.w3.org/TR/2001/REC-SVG-20010904/DTD/svg10.dtd">
<svg version="1.0" xmlns="http://www.w3.org/2000/svg"
 width="512.000000pt" height="512.000000pt" viewBox="0 0 512.000000 512.000000"
 preserveAspectRatio="xMidYMid meet">

<g transform="translate(0.000000,512.000000) scale(0.100000,-0.100000)"
fill="#000000" stroke="none">
<path d="M1800 4190 c-54 -5 -44 -7 55 -7 66 0 154 3 195 7 66 6 59 7 -55 7
-71 0 -159 -3 -195 -7z"/>
<path d="M3050 4190 c-70 -6 -67 -6 40 -7 63 0 165 3 225 7 l110 7 -150 -1
c-82 0 -184 -2 -225 -6z"/>
<path d="M2170 4170 c0 -17 49 -35 61 -23 6 6 8 16 5 22 -9 14 -66 14 -66 1z"/>
<path d="M3430 4170 c0 -17 49 -35 61 -23 6 6 8 16 5 22 -9 14 -66 14 -66 1z"/>
<path d="M1615 4139 c-4 -6 -5 -13 -2 -16 7 -7 27 6 27 18 0 12 -17 12 -25 -2z"/>
<path d="M1663 4138 c-13 -6 -25 -18 -27 -27 -3 -9 -8 -414 -11 -901 -4 -487
-9 -887 -11 -889 -2 -2 -4 115 -4 262 0 146 -3 274 -7 284 -5 11 -12 -35 -19
-112 l-11 -130 -3 95 -3 95 -8 -95 c-36 -418 -59 -1335 -41 -1621 13 -210 20
-218 220 -238 208 -22 495 -9 566 24 66 31 71 74 56 460 -6 165 -13 487 -16
715 -2 228 -8 541 -14 695 -13 383 -22 799 -24 1112 0 144 -4 264 -7 268 -4 3
-24 3 -44 -1 -34 -6 -36 -8 -29 -33 4 -14 9 -240 9 -501 2 -358 0 -426 -5
-277 -5 109 -10 201 -13 203 -3 3 -8 -52 -12 -123 -10 -206 -15 -175 -10 72
11 557 10 633 -10 655 -17 19 -29 20 -259 19 -150 0 -249 -4 -263 -11z m498
-67 c23 -18 24 -26 27 -153 4 -148 -7 -437 -39 -993 -17 -302 -21 -498 -22
-1063 l-2 -694 -24 -19 c-20 -17 -40 -19 -172 -19 -136 0 -151 2 -169 20 -11
11 -20 28 -20 38 0 9 -3 69 -5 132 -3 63 -10 282 -15 485 -6 204 -15 523 -21
710 -5 187 -9 607 -7 934 3 559 4 596 21 618 18 23 21 23 222 23 185 0 205 -2
226 -19z m26 -984 c-2 -23 -3 -1 -3 48 0 50 1 68 3 42 2 -26 2 -67 0 -90z
m-10 -234 c-3 -10 -5 -4 -5 12 0 17 2 24 5 18 2 -7 2 -21 0 -30z m50 -310 c-1
-60 -3 -11 -3 107 0 118 2 167 3 108 2 -60 2 -156 0 -215z m-60 -26 c-2 -23
-3 -1 -3 48 0 50 1 68 3 42 2 -26 2 -67 0 -90z m-600 41 c-3 -8 -6 -5 -6 6 -1
11 2 17 5 13 3 -3 4 -12 1 -19z m0 -75 c-3 -10 -5 -4 -5 12 0 17 2 24 5 18 2
-7 2 -21 0 -30z m660 -100 c-3 -10 -5 -2 -5 17 0 19 2 27 5 18 2 -10 2 -26 0
-35z m0 -220 c-3 -10 -5 -4 -5 12 0 17 2 24 5 18 2 -7 2 -21 0 -30z m0 -370
c-1 -65 -3 -14 -3 112 0 127 2 180 3 118 2 -62 2 -165 0 -230z m-620 -306 c-1
-100 -2 -18 -2 183 0 201 1 283 2 182 2 -100 2 -264 0 -365z m560 296 c-2 -32
-3 -8 -3 52 0 61 1 87 3 58 2 -29 2 -78 0 -110z m68 -709 c-7 -41 -31 -61 -80
-68 l-40 -6 34 12 c63 24 75 54 81 191 l5 122 3 -110 c2 -60 0 -124 -3 -141z
m-556 10 c-17 -21 -6 -57 21 -71 l25 -13 -30 0 c-17 0 -36 5 -43 12 -26 26 -6
103 23 91 12 -4 13 -9 4 -19z m-60 -97 c-23 -55 -69 -53 -69 2 l0 25 16 -22
c25 -36 44 -11 45 57 l1 56 9 -45 c6 -30 5 -54 -2 -73z m671 -42 c0 -15 -46
-32 -57 -22 -3 4 -3 13 0 22 8 20 57 20 57 0z"/>
<path d="M2865 4139 c-4 -6 -5 -13 -2 -16 7 -7 27 6 27 18 0 12 -17 12 -25 -2z"/>
<path d="M2913 4138 c-13 -6 -25 -18 -27 -27 -3 -9 -8 -398 -11 -866 -4 -467
-8 -852 -11 -854 -2 -2 -4 100 -4 227 0 261 -9 318 -26 167 l-11 -100 0 88 c0
48 -3 91 -7 94 -3 4 -6 -9 -6 -28 0 -19 -5 -99 -10 -179 -9 -137 -24 -422 -35
-645 -12 -258 -14 -493 -7 -751 10 -315 14 -333 82 -366 58 -28 224 -41 464
-36 316 6 316 6 317 228 0 80 -5 262 -10 405 -6 143 -16 577 -21 965 -6 388
-13 719 -16 735 -2 17 -7 235 -10 485 -2 250 -6 456 -8 458 -2 2 -21 0 -41 -4
-34 -6 -36 -8 -29 -33 4 -14 9 -249 9 -521 2 -371 0 -439 -5 -272 -4 122 -10
225 -14 229 -3 3 -7 -18 -7 -48 -1 -30 -5 -99 -9 -154 -4 -56 -5 61 -3 265 2
201 6 396 8 434 5 61 3 72 -17 93 -21 23 -22 23 -267 22 -154 0 -254 -4 -268
-11z m508 -67 c23 -18 24 -27 28 -153 3 -118 -13 -591 -25 -723 -23 -266 -37
-822 -38 -1466 -1 -525 -2 -548 -20 -568 -19 -21 -27 -21 -185 -19 l-166 3
-14 29 c-10 22 -16 116 -22 390 -5 199 -14 498 -21 666 -8 178 -13 621 -13
1061 0 730 1 758 19 778 18 20 28 21 226 21 190 0 210 -2 231 -19z m26 -988
c-2 -27 -3 -5 -3 47 0 52 1 74 3 48 2 -27 2 -69 0 -95z m-10 -240 c-2 -16 -4
-3 -4 27 0 30 2 43 4 28 2 -16 2 -40 0 -55z m50 -905 c-1 -178 -2 -35 -2 317
0 352 1 497 2 323 2 -174 2 -462 0 -640z m-60 525 c-1 -43 -3 -8 -3 77 0 85 2
120 3 78 2 -43 2 -113 0 -155z m0 -680 c-1 -49 -3 -9 -3 87 0 96 2 136 3 88 2
-49 2 -127 0 -175z m-570 -325 c-2 -29 -3 -6 -3 52 0 58 1 81 3 53 2 -29 2
-77 0 -105z m638 -385 c-7 -39 -29 -63 -58 -63 -21 0 -21 0 2 16 43 30 51 70
53 266 l3 183 3 -185 c1 -102 0 -199 -3 -217z m-555 27 c0 -5 -4 -10 -10 -10
-22 0 -9 -49 17 -68 l28 -20 -30 5 c-17 3 -36 10 -42 16 -14 10 -17 45 -7 71
7 17 44 22 44 6z m-75 -110 c-20 -39 -58 -39 -64 0 -3 24 -2 24 16 8 28 -25
43 -6 44 57 l1 50 10 -42 c7 -33 6 -49 -7 -73z m685 -45 c0 -19 -39 -30 -54
-15 -8 8 -6 15 7 25 21 15 47 10 47 -10z"/>
<path d="M1577 4083 c-10 -9 -9 -435 1 -429 7 4 17 436 9 436 -2 0 -7 -3 -10
-7z"/>
<path d="M2820 3859 c0 -128 2 -230 5 -227 3 3 8 104 11 225 5 158 3 222 -5
227 -8 5 -11 -56 -11 -225z"/>
<path d="M2810 2894 c0 -8 5 -12 10 -9 6 4 8 11 5 16 -9 14 -15 11 -15 -7z"/>
</g>
</svg>
