<?xml version="1.0" standalone="no"?>
<!DOCTYPE svg PUBLIC "-//W3C//DTD SVG 20010904//EN"
 "http://www.w3.org/TR/2001/REC-SVG-20010904/DTD/svg10.dtd">
<svg version="1.0" xmlns="http://www.w3.org/2000/svg"
 width="512.000000pt" height="512.000000pt" viewBox="0 0 512.000000 512.000000"
 preserveAspectRatio="xMidYMid meet">

<g transform="translate(0.000000,512.000000) scale(0.100000,-0.100000)"
fill="#000000" stroke="none">
<path d="M2100 4035 c-9 -10 -10 -22 -4 -35 9 -18 9 -18 33 1 13 11 21 25 17
34 -7 19 -30 19 -46 0z"/>
<path d="M2130 3971 c-6 -13 -10 -212 -10 -573 -1 -304 -5 -796 -10 -1093 -9
-595 -3 -1064 13 -1027 6 12 19 22 30 22 20 0 20 6 13 508 -15 1224 -18 2048
-8 2085 9 33 9 37 -9 37 -20 0 -24 16 -10 39 12 19 41 6 41 -18 0 -16 18 -31
36 -31 14 0 0 32 -22 49 -33 26 -50 26 -64 2z"/>
<path d="M2080 2753 c0 -10 -7 -148 -14 -308 -23 -461 -29 -780 -21 -1097 6
-265 13 -334 29 -317 7 7 18 1739 11 1739 -3 0 -5 -8 -5 -17z"/>
<path d="M3565 2630 c10 -11 20 -20 23 -20 3 0 -3 9 -13 20 -10 11 -20 20 -23
20 -3 0 3 -9 13 -20z"/>
<path d="M3515 2551 c-8 -17 -307 -323 -663 -681 -506 -509 -651 -650 -664
-645 -14 6 -18 2 -18 -14 0 -28 24 -37 58 -21 15 6 274 262 577 568 734 743
745 755 745 785 0 38 -17 42 -35 8z"/>
<path d="M3591 2550 c-4 -3 -17 -21 -30 -40 l-23 -35 30 33 c23 26 35 32 51
27 12 -3 21 -11 21 -17 0 -5 -181 -194 -402 -420 -222 -225 -555 -566 -741
-758 -185 -192 -346 -354 -357 -360 -29 -15 -40 -12 -40 12 0 15 76 99 253
278 230 233 236 239 61 70 -105 -102 -213 -205 -239 -229 -62 -58 -108 -131
-93 -148 28 -34 57 -15 201 134 255 266 505 521 931 950 230 231 428 435 438
452 26 40 18 61 -22 58 -18 -1 -35 -4 -39 -7z"/>
<path d="M3015 1948 l-280 -283 283 280 c262 260 287 285 279 285 -1 0 -128
-127 -282 -282z"/>
</g>
</svg>
