<?xml version="1.0" standalone="no"?>
<!DOCTYPE svg PUBLIC "-//W3C//DTD SVG 20010904//EN"
 "http://www.w3.org/TR/2001/REC-SVG-20010904/DTD/svg10.dtd">
<svg version="1.0" xmlns="http://www.w3.org/2000/svg"
 width="1015.000000pt" height="1000.000000pt" viewBox="0 0 1015.000000 1000.000000"
 preserveAspectRatio="xMidYMid meet">

<g transform="translate(0.000000,1000.000000) scale(0.100000,-0.100000)"
fill="#000000" stroke="none">
<path d="M6530 8934 c0 -3 6 -12 14 -20 11 -10 17 -11 22 -3 3 6 0 15 -7 20
-16 10 -29 12 -29 3z"/>
<path d="M5335 8904 c-27 -7 -86 -21 -130 -30 -77 -18 -79 -19 -40 -24 24 -3
39 -10 38 -18 -4 -17 52 -15 67 2 6 8 21 17 33 19 12 2 4 5 -17 6 -29 1 -37 4
-29 12 16 16 83 0 83 -20 0 -18 42 -41 77 -41 19 0 22 5 19 34 -1 19 1 33 6
30 4 -3 18 1 30 7 22 12 22 12 -12 24 -23 8 -39 9 -47 2 -9 -6 -13 -6 -13 2 0
13 1 13 -65 -5z"/>
<path d="M6816 8912 c-11 -19 23 -33 93 -39 69 -6 142 10 124 28 -13 12 -210
22 -217 11z"/>
<path d="M4968 8827 c-51 -14 -48 -29 5 -25 59 4 56 -19 -9 -52 l-50 -27 55 1
c31 1 95 -3 143 -7 l87 -9 -12 32 c-11 28 -10 33 7 46 26 18 19 24 -51 35 -95
17 -136 18 -175 6z"/>
<path d="M5288 8803 c7 -3 16 -2 19 1 4 3 -2 6 -13 5 -11 0 -14 -3 -6 -6z"/>
<path d="M5247 8780 c4 -14 14 -20 37 -21 l31 -1 -32 -11 c-46 -17 -53 -30
-13 -24 48 7 106 30 138 55 l27 21 -37 0 c-20 1 -40 -3 -43 -9 -3 -5 -24 -10
-45 -10 -21 0 -42 5 -45 10 -11 18 -23 11 -18 -10z"/>
<path d="M7320 8758 c-19 -11 -37 -24 -40 -29 -10 -15 -61 -29 -104 -29 -44 0
-74 -19 -61 -40 8 -13 52 -13 60 0 3 6 42 10 86 10 43 0 87 4 97 9 9 5 30 14
45 20 l28 11 -37 35 c-20 19 -37 35 -38 34 -1 0 -17 -10 -36 -21z"/>
<path d="M4193 8715 c-57 -6 -118 -19 -135 -27 -42 -20 -151 -57 -203 -70 -46
-11 -85 -33 -85 -49 0 -13 2 -12 120 31 146 54 255 72 440 74 91 0 191 -2 223
-5 63 -6 92 -23 67 -39 -13 -8 -12 -12 5 -30 18 -18 23 -19 40 -6 17 12 18 16
5 32 -13 16 -13 17 2 11 23 -8 34 11 17 27 -13 12 -105 36 -132 36 -7 -1 -1
-8 13 -16 l25 -15 -25 6 c-14 4 -54 13 -89 19 -36 7 -66 17 -69 24 -5 15 -81
14 -219 -3z m137 -5 c0 -5 -17 -10 -37 -9 -31 0 -34 2 -18 9 28 12 55 12 55 0z"/>
<path d="M7028 8645 c-1 -30 -1 -64 2 -75 8 -36 24 -22 22 18 -2 21 1 50 7 65
9 22 7 28 -8 37 -18 9 -19 5 -23 -45z"/>
<path d="M3680 8685 c0 -13 42 -45 59 -45 33 0 33 18 2 35 -29 15 -61 20 -61
10z"/>
<path d="M3938 8683 c6 -2 18 -2 25 0 6 3 1 5 -13 5 -14 0 -19 -2 -12 -5z"/>
<path d="M4695 8680 c3 -5 8 -10 11 -10 2 0 4 5 4 10 0 6 -5 10 -11 10 -5 0
-7 -4 -4 -10z"/>
<path d="M4735 8631 c-1 -38 -1 -39 22 -24 26 17 29 33 11 51 -22 22 -33 13
-33 -27z"/>
<path d="M5050 8650 c0 -5 5 -10 10 -10 6 0 10 5 10 10 0 6 -4 10 -10 10 -5 0
-10 -4 -10 -10z"/>
<path d="M3402 8643 c-6 -2 -10 -8 -7 -13 3 -4 -17 -8 -43 -8 -29 0 -89 -15
-157 -39 -151 -54 -411 -166 -396 -171 15 -5 69 12 302 99 218 80 353 113 449
111 l45 -1 -30 14 c-29 13 -136 19 -163 8z"/>
<path d="M7420 8633 c0 -6 13 -16 29 -22 28 -12 28 -13 29 -97 1 -73 4 -88 24
-113 19 -25 58 -51 73 -51 3 0 0 12 -5 26 -13 32 -6 44 25 44 15 0 33 -12 50
-32 l26 -33 -11 30 c-22 60 -102 214 -120 230 -20 18 -120 33 -120 18z"/>
<path d="M3615 8610 c3 -5 10 -10 16 -10 5 0 9 5 9 10 0 6 -7 10 -16 10 -8 0
-12 -4 -9 -10z"/>
<path d="M6717 8599 c-62 -15 -217 -107 -217 -130 0 -5 -6 -9 -12 -9 -15 0
-87 -48 -113 -74 -36 -35 -24 -74 29 -100 23 -11 33 -22 30 -31 -7 -18 32 -38
61 -31 41 10 114 -5 140 -30 35 -32 117 -51 255 -59 102 -6 118 -5 130 10 12
15 12 18 -3 26 -29 17 -67 56 -60 62 3 4 16 7 27 7 12 0 31 7 42 15 12 8 24
11 28 8 3 -3 6 -1 6 5 0 7 -3 12 -7 12 -5 1 -26 30 -48 65 -24 39 -47 65 -57
65 -20 0 -24 20 -8 36 6 6 6 20 0 39 -5 17 -12 43 -15 58 -4 20 -10 27 -20 23
-8 -3 -17 -1 -20 4 -5 9 -105 41 -122 39 -4 -1 -25 -5 -46 -10z m83 -91 c21
-21 43 -51 50 -68 7 -16 18 -30 25 -30 19 0 21 -11 15 -87 l-5 -68 -52 -9
c-29 -5 -53 -13 -53 -18 0 -13 -20 -9 -37 8 -12 11 -31 15 -69 12 -29 -1 -50
0 -48 3 5 9 -14 22 -66 44 -25 11 -55 30 -67 43 -39 40 -30 62 50 114 66 43
93 56 170 87 15 6 27 18 27 28 1 16 2 16 12 -2 6 -11 28 -37 48 -57z m160
-232 c0 -3 -4 -8 -10 -11 -5 -3 -10 -1 -10 4 0 6 5 11 10 11 6 0 10 -2 10 -4z"/>
<path d="M7090 8578 c0 -38 15 -58 44 -58 17 0 18 1 3 18 -8 9 -17 28 -19 41
-5 39 -28 38 -28 -1z"/>
<path d="M4928 8583 c7 -3 16 -2 19 1 4 3 -2 6 -13 5 -11 0 -14 -3 -6 -6z"/>
<path d="M7200 8570 c0 -17 43 -50 67 -50 13 0 23 2 23 4 0 4 -78 56 -85 56
-3 0 -5 -4 -5 -10z"/>
<path d="M4600 8550 c-8 -5 -12 -12 -9 -15 4 -3 12 1 19 10 14 17 11 19 -10 5z"/>
<path d="M3883 8493 c9 -2 23 -2 30 0 6 3 -1 5 -18 5 -16 0 -22 -2 -12 -5z"/>
<path d="M4717 8460 c3 -11 7 -20 9 -20 2 0 13 9 24 20 l20 20 -29 0 c-24 0
-28 -3 -24 -20z"/>
<path d="M4495 8450 c-5 -8 -4 -11 1 -7 5 3 49 -4 97 -15 95 -22 142 -18 94 7
-15 7 -35 14 -44 14 -10 1 -46 4 -79 7 -44 4 -64 3 -69 -6z"/>
<path d="M3291 8380 c-30 -27 -56 -50 -58 -50 -2 0 -22 -12 -46 -27 -23 -15
-66 -41 -96 -56 -30 -16 -64 -38 -75 -49 l-21 -20 25 7 c38 12 203 104 208
117 2 4 8 8 14 8 10 0 118 105 118 115 0 14 -19 1 -69 -45z"/>
<path d="M4785 8400 l-30 -8 27 -1 c15 0 30 4 33 9 3 6 5 9 3 9 -2 -1 -16 -5
-33 -9z"/>
<path d="M5296 8403 c-10 -3 -38 -15 -62 -28 -35 -19 -41 -25 -30 -35 11 -8
17 -6 29 10 8 11 20 18 28 16 8 -3 28 6 44 19 30 25 28 27 -9 18z"/>
<path d="M4056 8381 c-21 -23 -20 -31 3 -31 10 0 22 7 25 16 4 10 13 13 26 9
32 -10 23 2 -9 13 -24 8 -32 7 -45 -7z"/>
<path d="M4185 8370 c3 -5 15 -10 25 -10 10 0 22 -5 25 -11 4 -6 13 -8 20 -5
8 3 17 -4 20 -15 7 -22 35 -26 35 -4 0 8 -7 15 -16 15 -8 0 -13 4 -10 9 3 4
-12 13 -33 20 -47 14 -74 14 -66 1z"/>
<path d="M3980 8350 c0 -5 7 -10 15 -10 8 0 15 5 15 10 0 6 -7 10 -15 10 -8 0
-15 -4 -15 -10z"/>
<path d="M5130 8330 c-8 -5 -10 -10 -5 -10 6 0 17 5 25 10 8 5 11 10 5 10 -5
0 -17 -5 -25 -10z"/>
<path d="M5087 8323 c-4 -3 -57 -7 -119 -9 -145 -3 -138 -2 -138 -18 0 -8 -12
-17 -27 -21 -16 -3 -60 -22 -100 -41 -40 -19 -77 -34 -82 -34 -15 0 -21 -14
-12 -29 7 -11 19 -10 62 4 30 10 59 21 64 25 6 4 19 10 30 13 14 3 12 5 -10 6
l-30 2 25 14 c14 8 33 14 44 15 15 0 16 -3 6 -15 -10 -13 -9 -15 9 -15 12 0
24 -7 27 -15 4 -8 13 -15 21 -15 9 0 45 -15 82 -32 115 -58 184 -42 210 49 5
17 21 48 36 67 15 20 23 36 17 36 -16 0 -88 -63 -105 -92 -22 -39 -76 -39
-111 -1 -31 33 -22 48 38 63 58 15 86 28 86 40 0 11 -13 13 -23 3z m-139 -75
c-6 -18 -28 -21 -28 -4 0 9 7 16 16 16 9 0 14 -5 12 -12z"/>
<path d="M7550 8291 c0 -17 54 -71 72 -71 17 0 7 22 -26 55 -38 40 -46 43 -46
16z"/>
<path d="M3220 8270 c0 -5 5 -10 10 -10 6 0 10 5 10 10 0 6 -4 10 -10 10 -5 0
-10 -4 -10 -10z"/>
<path d="M5800 8271 c0 -6 4 -13 10 -16 6 -3 7 1 4 9 -7 18 -14 21 -14 7z"/>
<path d="M5296 8248 c-3 -13 -1 -27 4 -32 7 -7 10 1 10 22 0 37 -5 41 -14 10z"/>
<path d="M7254 8255 c11 -8 25 -15 30 -15 6 0 2 7 -8 15 -11 8 -25 15 -30 15
-6 0 -2 -7 8 -15z"/>
<path d="M5233 8252 c-11 -7 -12 -57 -1 -67 2 -2 9 13 15 35 10 40 8 46 -14
32z"/>
<path d="M3145 8230 c-3 -5 1 -10 9 -10 8 0 18 5 21 10 3 6 -1 10 -9 10 -8 0
-18 -4 -21 -10z"/>
<path d="M6265 8230 c3 -5 10 -10 16 -10 5 0 9 5 9 10 0 6 -7 10 -16 10 -8 0
-12 -4 -9 -10z"/>
<path d="M5478 8213 c-9 -11 -8 -17 3 -24 20 -12 24 -11 50 10 l23 18 -32 5
c-21 3 -37 -1 -44 -9z"/>
<path d="M7646 8185 c9 -14 20 -25 25 -25 5 0 3 11 -3 25 -6 14 -17 25 -25 25
-11 0 -10 -5 3 -25z"/>
<path d="M7123 8174 c15 -16 27 -35 27 -41 0 -11 22 -23 42 -23 10 0 -12 23
-72 74 -22 19 -22 18 3 -10z"/>
<path d="M5817 8169 c7 -7 15 -10 18 -7 3 3 -2 9 -12 12 -14 6 -15 5 -6 -5z"/>
<path d="M6110 8171 c0 -16 30 -41 48 -40 12 0 11 3 -5 9 -13 5 -23 16 -23 25
0 8 -4 15 -10 15 -5 0 -10 -4 -10 -9z"/>
<path d="M5262 8153 c2 -9 9 -18 16 -21 18 -6 15 25 -4 32 -11 4 -14 1 -12
-11z"/>
<path d="M7475 8125 c44 -26 93 -56 108 -67 16 -11 31 -18 33 -15 10 9 -47 54
-107 84 -101 50 -122 49 -34 -2z"/>
<path d="M2845 8120 c-3 -5 -17 -10 -30 -10 -14 0 -32 -11 -44 -27 -12 -14
-24 -23 -28 -19 -4 4 -1 11 7 16 8 5 11 12 7 16 -4 4 -13 2 -19 -4 -7 -7 -20
-12 -30 -12 -10 0 -18 -5 -18 -10 0 -6 -10 -14 -23 -19 -13 -5 -23 -18 -24
-31 -2 -18 2 -21 20 -15 12 3 37 10 55 15 18 4 39 13 47 20 8 6 18 9 24 6 14
-9 41 4 41 20 0 8 6 17 14 20 8 3 14 14 13 25 -1 22 -3 23 -12 9z"/>
<path d="M5495 8120 c-3 -5 3 -10 14 -10 11 0 23 5 26 10 3 6 -3 10 -14 10
-11 0 -23 -4 -26 -10z"/>
<path d="M5730 8120 c0 -5 13 -10 30 -10 20 0 33 -7 41 -22 6 -13 22 -33 35
-44 15 -13 22 -28 18 -37 -4 -11 8 -23 40 -42 25 -15 46 -33 46 -42 0 -8 5
-11 11 -8 6 4 8 13 5 21 -3 8 -1 14 4 14 31 0 -5 115 -49 154 l-22 20 16 -30
c8 -16 15 -39 15 -51 0 -50 -74 -9 -95 51 -9 25 -16 30 -52 33 -25 2 -43 -1
-43 -7z m201 -147 c13 -16 12 -17 -3 -4 -10 7 -18 15 -18 17 0 8 8 3 21 -13z"/>
<path d="M5455 8100 c-16 -7 -17 -9 -3 -9 9 -1 20 4 23 9 7 11 7 11 -20 0z"/>
<path d="M4335 8080 c-3 -5 -20 -10 -36 -10 -26 0 -29 -3 -24 -23 5 -18 1 -26
-19 -35 -14 -6 -26 -16 -26 -22 0 -5 -13 -16 -29 -25 -36 -18 -82 -5 -105 30
-12 19 -24 24 -51 23 -32 -1 -35 -4 -35 -30 0 -16 4 -38 10 -48 9 -17 56 -38
98 -44 26 -4 124 23 152 42 14 9 34 17 45 17 11 0 20 5 20 10 0 6 4 16 8 22
10 15 -16 56 -28 45 -5 -4 -5 -2 -2 5 4 6 4 13 0 16 -5 2 -2 2 6 0 15 -4 41
14 41 28 0 12 -17 11 -25 -1z"/>
<path d="M4957 8074 c2 -7 17 -17 31 -23 15 -6 38 -18 52 -27 17 -11 19 -11 7
-1 -16 14 -12 15 47 13 50 -1 67 2 71 13 11 28 -12 36 -65 22 -27 -7 -53 -10
-58 -7 -5 3 -27 9 -50 14 -32 8 -39 7 -35 -4z"/>
<path d="M7253 8063 c19 -22 36 -30 132 -59 59 -18 114 -60 128 -96 3 -9 15
-16 26 -15 24 1 25 4 10 45 -10 30 -58 60 -78 48 -5 -4 -12 -2 -15 3 -9 14
-111 59 -152 67 -22 3 -46 12 -54 18 -9 6 -7 2 3 -11z"/>
<path d="M6134 8062 c4 -7 13 -12 21 -12 7 0 15 -5 17 -11 2 -7 13 -9 26 -5
33 11 26 24 -12 24 -19 0 -40 3 -47 8 -8 4 -10 3 -5 -4z"/>
<path d="M3968 8027 c6 -7 12 -30 15 -52 3 -36 4 -35 5 13 2 42 -1 52 -14 52
-12 0 -14 -3 -6 -13z"/>
<path d="M6732 8018 c6 -18 28 -21 28 -4 0 9 -7 16 -16 16 -9 0 -14 -5 -12
-12z"/>
<path d="M6022 7967 c-27 -47 -28 -55 -2 -32 12 11 36 19 55 19 19 0 35 4 35
8 0 4 -13 8 -29 8 -20 0 -31 6 -33 17 -2 13 -9 8 -26 -20z"/>
<path d="M5342 7971 c-29 -18 -1 -44 36 -34 18 4 20 9 11 24 -10 20 -26 24
-47 10z"/>
<path d="M6990 7954 c-14 -7 -32 -14 -41 -14 -29 0 -59 -39 -59 -78 -1 -20 -7
-48 -15 -62 -24 -42 -18 -55 34 -74 73 -26 120 -19 148 22 40 60 65 141 56
181 -8 34 -11 36 -53 38 -25 1 -56 -5 -70 -13z"/>
<path d="M6240 7940 c20 -13 40 -13 40 0 0 6 -12 10 -27 10 -22 0 -25 -2 -13
-10z"/>
<path d="M7825 7928 c1 -13 3 -31 4 -40 1 -22 17 -23 25 -3 6 18 -10 65 -22
65 -5 0 -8 -10 -7 -22z"/>
<path d="M3990 7922 c0 -10 50 -35 57 -28 3 2 -9 12 -26 21 -17 8 -31 12 -31
7z"/>
<path d="M6094 7893 c-9 -15 -5 -22 23 -40 38 -25 41 -21 13 25 -23 37 -22 37
-36 15z"/>
<path d="M7494 7871 c0 -24 27 -33 44 -14 10 11 9 13 -8 13 -12 0 -18 5 -15
10 3 6 0 10 -7 10 -8 0 -14 -9 -14 -19z"/>
<path d="M1930 7818 c-32 -45 -44 -72 -44 -99 -1 -21 -9 -46 -19 -57 -16 -17
-16 -20 -2 -25 8 -4 15 -17 15 -31 0 -14 4 -27 8 -30 14 -8 48 46 55 86 3 21
14 47 25 58 24 26 34 67 18 75 -8 3 -7 7 2 11 16 8 15 49 -2 63 -10 9 -22 -2
-56 -51z"/>
<path d="M3544 7862 c-38 -20 -124 -98 -124 -112 0 -5 25 7 55 27 30 21 55 41
55 45 0 4 6 8 13 8 6 0 21 7 31 15 31 23 7 36 -30 17z"/>
<path d="M6246 7864 c-3 -9 -1 -34 4 -56 6 -21 12 -90 13 -152 l2 -113 -37
-44 c-82 -98 -74 -92 -136 -86 -86 9 -158 34 -197 68 l-35 31 0 105 c0 102 0
104 -22 101 -17 -2 -31 -21 -58 -83 -19 -44 -47 -101 -62 -127 -16 -26 -28
-56 -28 -67 0 -27 44 -49 118 -60 32 -5 46 -10 32 -11 -14 -2 0 -6 30 -10 42
-5 25 -7 -72 -8 -70 -1 -138 2 -153 8 -14 5 -24 6 -21 1 13 -20 114 -34 301
-41 110 -4 217 -13 238 -19 41 -13 61 -7 52 16 -4 13 2 15 42 10 66 -9 213
-17 186 -11 -25 6 -30 23 -11 42 15 15 8 15 -29 2 l-28 -10 25 20 c14 11 37
28 52 37 24 15 25 18 10 29 -15 11 -15 13 9 22 59 23 36 67 -65 125 l-48 28 7
45 c13 92 -92 277 -119 208z m154 -473 c0 -5 -7 -12 -16 -15 -14 -5 -15 -4 -4
9 14 17 20 19 20 6z m-467 -18 c-7 -2 -21 -2 -30 0 -10 3 -4 5 12 5 17 0 24
-2 18 -5z m82 -13 c4 -6 15 -8 24 -5 10 3 24 -1 31 -10 10 -13 9 -15 -7 -15
-31 0 -84 21 -77 31 7 12 21 11 29 -1z"/>
<path d="M7365 7866 c-38 -15 -95 -45 -95 -51 0 -2 24 7 53 20 28 14 61 25 72
25 11 0 27 5 35 10 22 14 -26 11 -65 -4z"/>
<path d="M6045 7830 c-3 -5 -1 -10 4 -10 6 0 11 5 11 10 0 6 -2 10 -4 10 -3 0
-8 -4 -11 -10z"/>
<path d="M7696 7824 c-3 -9 -6 -17 -6 -18 0 -1 17 0 37 2 34 4 35 6 18 18 -25
18 -41 18 -49 -2z"/>
<path d="M7785 7820 c-3 -5 -1 -10 4 -10 6 0 11 5 11 10 0 6 -2 10 -4 10 -3 0
-8 -4 -11 -10z"/>
<path d="M3550 7785 c-31 -16 -133 -63 -180 -83 -19 -8 -58 -30 -87 -49 -49
-32 -52 -37 -46 -66 8 -43 20 -56 46 -50 34 8 227 105 227 115 0 4 5 8 10 8
15 0 70 42 70 54 0 5 -7 18 -16 28 -14 14 -14 20 -4 33 18 22 9 26 -20 10z"/>
<path d="M3960 7770 c0 -5 5 -10 10 -10 6 0 10 5 10 10 0 6 -4 10 -10 10 -5 0
-10 -4 -10 -10z"/>
<path d="M4350 7772 c0 -5 12 -19 26 -33 14 -13 23 -31 21 -40 -6 -22 25 -14
49 12 15 17 16 20 0 44 -13 20 -25 25 -56 25 -22 0 -40 -4 -40 -8z"/>
<path d="M3940 7711 c-47 -15 -255 -123 -315 -165 -86 -59 -87 -60 -64 -79 31
-27 112 -5 161 45 47 48 92 68 156 68 48 0 49 -1 47 -30 -2 -35 4 -37 27 -11
12 14 13 21 5 24 -8 3 -3 14 12 30 25 28 35 91 18 115 -10 13 -12 13 -47 3z
m-161 -125 c-2 -2 -18 -7 -34 -10 l-30 -6 30 14 c26 12 46 14 34 2z m-102 -32
c-3 -3 -12 -4 -19 -1 -8 3 -5 6 6 6 11 1 17 -2 13 -5z"/>
<path d="M4175 7680 c-7 -12 18 -24 37 -18 8 3 5 9 -9 16 -14 8 -24 9 -28 2z"/>
<path d="M4290 7650 c0 -5 14 -10 30 -10 17 0 30 5 30 10 0 6 -13 10 -30 10
-16 0 -30 -4 -30 -10z"/>
<path d="M6865 7640 c3 -5 13 -10 21 -10 8 0 12 5 9 10 -3 6 -13 10 -21 10 -8
0 -12 -4 -9 -10z"/>
<path d="M6041 7613 c-16 -17 -7 -39 22 -57 27 -17 39 4 26 42 -12 35 -27 40
-48 15z"/>
<path d="M1940 7600 c0 -6 -6 -8 -12 -4 -10 6 -10 4 0 -7 9 -9 15 -10 23 -2 8
8 8 13 0 17 -6 4 -11 2 -11 -4z"/>
<path d="M2300 7593 c-66 -10 -72 -13 -60 -28 7 -8 23 -15 36 -15 15 0 24 -6
24 -15 0 -16 39 -36 54 -28 4 3 6 18 3 33 -3 15 -1 32 6 39 8 8 8 11 0 11 -6
0 -17 2 -25 4 -7 2 -24 1 -38 -1z"/>
<path d="M8058 7573 c7 -3 16 -2 19 1 4 3 -2 6 -13 5 -11 0 -14 -3 -6 -6z"/>
<path d="M4560 7542 c-40 -20 -53 -52 -21 -52 13 0 26 11 36 29 8 16 23 32 32
34 13 3 14 5 3 6 -8 0 -31 -7 -50 -17z"/>
<path d="M1850 7546 c0 -2 7 -9 15 -16 9 -7 15 -8 15 -2 0 5 -7 12 -15 16 -8
3 -15 4 -15 2z"/>
<path d="M1920 7517 c-8 -12 -18 -27 -23 -34 -4 -6 -3 -15 3 -18 6 -4 17 10
26 30 18 43 15 54 -6 22z"/>
<path d="M2108 7532 c-16 -2 -28 -6 -28 -8 0 -12 25 -51 45 -72 l23 -22 16 25
c16 24 45 37 30 14 -5 -8 1 -10 18 -6 14 4 33 1 45 -8 25 -18 73 -16 73 2 0 7
-7 13 -15 13 -9 0 -18 7 -21 15 -4 8 -15 15 -25 15 -12 0 -19 7 -19 20 0 15
-7 20 -27 20 -16 0 -35 -4 -42 -9 -8 -5 -22 -6 -30 -2 -9 4 -28 5 -43 3z m122
-46 c0 -3 -4 -8 -10 -11 -5 -3 -10 -1 -10 4 0 6 5 11 10 11 6 0 10 -2 10 -4z"/>
<path d="M2036 7521 c-4 -7 -5 -15 -2 -18 9 -9 19 4 14 18 -4 11 -6 11 -12 0z"/>
<path d="M8025 7505 c22 -8 51 -13 65 -13 19 0 16 3 -15 13 -22 8 -51 13 -65
13 -19 0 -16 -3 15 -13z"/>
<path d="M7818 7485 c-95 -16 -153 -45 -196 -98 -42 -51 -40 -82 5 -83 41 0
56 -14 17 -15 -16 -1 -33 -1 -37 0 -19 3 -18 -33 2 -59 14 -20 17 -31 9 -36
-13 -8 17 -34 40 -34 11 0 10 3 -2 16 -22 21 -20 25 9 19 80 -16 74 -19 64 23
-4 20 -18 45 -29 54 l-22 18 21 27 c12 16 36 48 54 73 27 37 43 48 95 65 34
11 62 26 62 33 0 6 -3 12 -7 11 -5 -1 -43 -7 -85 -14z"/>
<path d="M7925 7490 c3 -5 14 -10 23 -10 15 0 15 2 2 10 -20 13 -33 13 -25 0z"/>
<path d="M8030 7486 c0 -2 7 -7 16 -10 8 -3 12 -2 9 4 -6 10 -25 14 -25 6z"/>
<path d="M4398 7463 c6 -2 18 -2 25 0 6 3 1 5 -13 5 -14 0 -19 -2 -12 -5z"/>
<path d="M5650 7426 c0 -7 6 -19 14 -25 11 -9 12 -6 8 14 -5 26 -22 35 -22 11z"/>
<path d="M7926 7431 c-7 -10 17 -21 46 -21 17 0 18 3 8 15 -14 17 -46 20 -54
6z"/>
<path d="M1740 7405 c0 -8 2 -15 4 -15 2 0 6 7 10 15 3 8 1 15 -4 15 -6 0 -10
-7 -10 -15z"/>
<path d="M1724 7367 c-4 -10 -2 -23 3 -28 14 -14 24 13 13 32 -7 11 -10 10
-16 -4z"/>
<path d="M5743 7373 c9 -2 23 -2 30 0 6 3 -1 5 -18 5 -16 0 -22 -2 -12 -5z"/>
<path d="M8188 7357 c-31 -12 -39 -33 -25 -67 l10 -25 5 25 c5 33 30 60 55 60
20 0 20 0 -1 -23 -22 -24 -30 -77 -12 -77 6 0 10 9 10 21 0 17 4 20 23 15 16
-4 26 0 34 13 10 15 19 17 52 11 23 -4 41 -4 41 0 0 11 -38 20 -83 20 -22 0
-36 4 -32 9 3 6 -3 15 -14 20 -23 13 -27 13 -63 -2z"/>
<path d="M3175 7330 c3 -5 8 -10 11 -10 2 0 4 5 4 10 0 6 -5 10 -11 10 -5 0
-7 -4 -4 -10z"/>
<path d="M1770 7299 c0 -5 5 -7 10 -4 6 3 10 8 10 11 0 2 -4 4 -10 4 -5 0 -10
-5 -10 -11z"/>
<path d="M1690 7260 c0 -5 5 -10 11 -10 5 0 7 5 4 10 -3 6 -8 10 -11 10 -2 0
-4 -4 -4 -10z"/>
<path d="M3660 7232 c-30 -20 -56 -40 -58 -43 -2 -4 -12 -5 -23 -2 -15 4 -18
2 -13 -11 4 -9 1 -16 -6 -16 -9 0 -8 -6 4 -19 11 -12 26 -17 44 -14 19 3 23 2
14 -5 -11 -7 -9 -10 7 -15 24 -6 52 20 33 32 -8 4 5 25 38 61 28 30 50 58 50
62 0 18 -38 5 -90 -30z"/>
<path d="M6590 7260 c0 -5 4 -10 9 -10 6 0 13 5 16 10 3 6 -1 10 -9 10 -9 0
-16 -4 -16 -10z"/>
<path d="M8372 7254 c-17 -12 -23 -24 -21 -48 2 -17 7 -37 12 -43 10 -14 31
-7 22 8 -4 5 -2 9 4 9 5 0 15 16 21 35 9 28 17 35 38 36 24 0 25 1 7 9 -31 13
-59 11 -83 -6z"/>
<path d="M6716 7235 c4 -8 8 -15 10 -15 2 0 4 7 4 15 0 8 -4 15 -10 15 -5 0
-7 -7 -4 -15z"/>
<path d="M6471 7174 c-17 -46 -8 -55 13 -13 18 36 20 49 8 49 -4 0 -14 -16
-21 -36z"/>
<path d="M7340 7190 c0 -5 -7 -10 -17 -10 -23 0 -10 -10 21 -16 28 -5 29 -4
20 20 -7 18 -24 22 -24 6z"/>
<path d="M6541 7163 c-6 -14 -9 -28 -7 -31 8 -7 36 19 36 34 0 25 -17 23 -29
-3z"/>
<path d="M6744 7161 c3 -5 17 -8 32 -8 18 0 22 2 13 8 -18 11 -52 11 -45 0z"/>
<path d="M7061 7144 c-19 -8 -32 -16 -29 -19 6 -7 76 14 83 25 9 14 -15 12
-54 -6z"/>
<path d="M6685 7140 c3 -5 -6 -12 -20 -16 -37 -9 -32 -50 7 -47 18 1 28 -4 31
-18 3 -11 11 -19 19 -18 18 3 51 -12 61 -28 11 -18 81 -53 107 -53 25 0 26 20
3 46 -10 10 -20 28 -21 39 -2 11 -7 22 -10 25 -4 3 -12 14 -18 25 -7 12 -20
19 -32 17 -11 -2 -23 2 -27 8 -3 6 -11 8 -16 5 -5 -4 -19 1 -31 9 -25 18 -63
22 -53 6z m57 -39 l21 -20 -28 3 c-30 3 -58 36 -30 36 9 0 25 -9 37 -19z"/>
<path d="M8493 7115 c-16 -17 -17 -45 -3 -45 6 0 21 -11 33 -23 12 -13 28 -22
34 -20 7 3 27 -3 44 -11 18 -9 45 -16 61 -16 16 0 42 -7 58 -15 34 -18 56 -51
38 -57 -6 -2 9 -16 33 -30 24 -14 46 -23 49 -18 3 4 16 10 30 11 24 4 23 6
-29 62 -30 31 -58 57 -63 57 -5 0 -40 18 -76 40 -103 60 -189 87 -209 65z"/>
<path d="M5928 7109 c-7 -5 -25 -9 -40 -9 -38 0 -35 -17 5 -34 29 -11 136 -25
212 -26 17 0 17 -2 5 -14 -17 -15 -95 -36 -135 -36 -15 0 -36 -11 -49 -25 -13
-14 -27 -25 -33 -25 -5 0 -9 -9 -9 -20 0 -16 3 -17 16 -7 39 31 64 37 157 37
105 0 163 -12 203 -40 36 -26 115 -36 126 -17 5 8 15 16 23 19 8 2 15 18 17
34 3 27 -3 35 -51 70 -30 21 -55 46 -55 56 0 13 -18 17 -112 23 -62 4 -120 6
-128 4 -8 -1 -22 0 -30 4 -28 10 -108 14 -122 6z"/>
<path d="M3035 7055 c-25 -12 -26 -14 -5 -9 28 7 60 23 45 23 -5 0 -23 -6 -40
-14z"/>
<path d="M3600 7055 c-10 -12 -10 -15 0 -15 7 0 19 -8 26 -17 11 -15 15 -16
23 -4 24 36 -21 70 -49 36z"/>
<path d="M5821 7004 c0 -11 3 -14 6 -6 3 7 2 16 -1 19 -3 4 -6 -2 -5 -13z"/>
<path d="M6696 6994 c-9 -23 -2 -28 29 -20 30 8 29 29 -2 34 -12 2 -23 -4 -27
-14z"/>
<path d="M2496 6977 c-11 -8 -17 -19 -15 -25 2 -6 16 0 32 14 29 25 15 34 -17
11z"/>
<path d="M3512 6961 c-9 -26 -8 -31 4 -31 8 0 13 -4 10 -8 -2 -4 4 -8 14 -9
25 -2 37 16 19 29 -10 7 -7 7 8 3 20 -6 22 -4 14 17 -5 14 -18 24 -33 26 -21
3 -28 -3 -36 -27z"/>
<path d="M7176 6961 c-4 -5 -2 -12 3 -15 5 -4 12 -2 15 3 4 5 2 12 -3 15 -5 4
-12 2 -15 -3z"/>
<path d="M6591 6948 c9 -7 21 -32 27 -54 14 -49 39 -64 62 -36 8 10 42 26 75
36 55 16 63 16 97 2 21 -9 50 -16 65 -15 28 0 28 0 -7 17 -19 9 -41 23 -48 30
-34 31 -82 37 -82 10 0 -6 -10 -8 -22 -5 -13 4 -29 0 -38 -8 -9 -8 -31 -18
-50 -21 -31 -7 -33 -6 -27 18 7 28 -5 38 -46 38 -18 0 -19 -2 -6 -12z"/>
<path d="M2688 6933 c7 -3 16 -2 19 1 4 3 -2 6 -13 5 -11 0 -14 -3 -6 -6z"/>
<path d="M8580 6930 c-12 -7 -13 -18 -3 -64 7 -31 18 -70 26 -88 9 -18 18 -45
21 -59 3 -15 13 -30 22 -33 11 -4 14 -2 11 6 -58 133 -73 208 -45 236 9 9 9
12 -2 12 -8 0 -22 -4 -30 -10z"/>
<path d="M2440 6898 c0 -15 60 -48 88 -48 40 0 48 14 19 33 -24 15 -107 28
-107 15z"/>
<path d="M8638 6854 c-18 -28 49 -183 72 -169 5 3 12 0 16 -6 4 -8 3 -9 -4 -5
-7 4 -12 2 -12 -4 0 -7 6 -10 14 -7 16 6 50 -26 39 -37 -4 -4 1 -4 11 0 13 5
17 4 12 -4 -3 -6 -3 -13 2 -16 5 -3 9 2 9 10 0 8 -13 24 -29 35 -16 12 -38 39
-49 61 -11 22 -23 38 -26 35 -2 -3 1 -15 7 -27 9 -17 9 -21 0 -15 -14 9 -29
46 -44 110 -6 28 -15 45 -18 39z"/>
<path d="M6190 6836 c0 -8 15 -30 33 -49 33 -36 35 -36 164 -39 25 0 93 39 93
53 0 17 -50 29 -91 23 -21 -4 -58 -2 -82 4 -85 22 -117 24 -117 8z"/>
<path d="M2349 6801 c-21 -17 -23 -27 -24 -112 -1 -52 -5 -117 -9 -145 -11
-66 16 -190 49 -228 l23 -27 3 88 c1 48 1 111 1 138 0 28 -2 107 -3 178 -1 70
-5 127 -9 127 -4 0 -18 -8 -31 -19z"/>
<path d="M6673 6798 c-4 -7 -8 -22 -8 -33 0 -11 -5 -20 -12 -20 -7 0 -18 -6
-24 -12 -17 -17 -36 -16 -46 1 -4 8 -20 17 -34 21 -23 6 -27 3 -31 -20 -4 -19
-2 -25 8 -21 8 3 11 0 8 -8 -3 -8 4 -15 20 -18 14 -3 26 -2 26 2 0 5 9 6 20 3
11 -3 17 -9 15 -14 -10 -15 37 -48 87 -60 37 -10 64 -27 109 -70 32 -31 59
-64 59 -73 0 -12 5 -16 19 -11 15 4 18 1 14 -18 -5 -27 -61 -52 -94 -42 -39
13 2 -32 51 -56 25 -11 53 -25 63 -31 26 -13 117 -7 117 8 0 7 13 18 29 25 16
7 27 17 25 21 -3 4 -1 8 5 8 5 0 13 -5 16 -10 7 -11 25 -4 25 9 0 10 -77 91
-86 91 -3 0 -1 -7 6 -15 30 -36 -53 1 -116 51 -23 18 -44 30 -48 27 -3 -4 -6
-2 -6 4 0 15 -44 63 -58 63 -7 0 -11 3 -11 8 1 4 0 12 -1 17 -9 32 -2 63 18
85 l22 25 -27 12 c-16 7 -35 12 -44 13 -9 0 -37 11 -62 25 -35 20 -47 23 -54
13z m132 -177 c3 -5 1 -12 -5 -16 -5 -3 -10 -2 -10 4 0 5 -8 12 -17 14 -14 4
-13 5 4 6 12 0 24 -3 28 -8z"/>
<path d="M5040 6789 c-16 -5 1 -6 45 -2 39 3 72 7 74 9 8 8 -95 2 -119 -7z"/>
<path d="M8213 6793 c9 -2 23 -2 30 0 6 3 -1 5 -18 5 -16 0 -22 -2 -12 -5z"/>
<path d="M8681 6774 c0 -11 3 -14 6 -6 3 7 2 16 -1 19 -3 4 -6 -2 -5 -13z"/>
<path d="M8772 6748 c2 -17 10 -23 28 -24 14 0 36 -4 50 -9 l25 -8 -20 24
c-28 33 -37 39 -63 39 -19 0 -23 -5 -20 -22z"/>
<path d="M6970 6711 c0 -5 7 -14 15 -21 12 -10 15 -10 15 3 0 8 -7 17 -15 21
-8 3 -15 2 -15 -3z"/>
<path d="M8940 6704 c0 -8 5 -12 10 -9 6 4 8 11 5 16 -9 14 -15 11 -15 -7z"/>
<path d="M4875 6695 l-30 -13 26 -1 c15 -1 32 6 39 14 15 18 5 18 -35 0z"/>
<path d="M8347 6688 c9 -36 44 -68 74 -68 44 0 42 15 -5 54 -52 42 -77 47 -69
14z"/>
<path d="M6370 6675 c0 -9 75 -55 90 -54 13 0 13 1 0 6 -8 4 -29 17 -46 30
-30 22 -44 28 -44 18z"/>
<path d="M4685 6640 c-7 -11 30 -19 45 -10 7 5 2 9 -14 12 -15 3 -29 2 -31 -2z"/>
<path d="M5064 6627 c-8 -22 8 -40 31 -35 16 3 16 5 -3 28 -19 23 -21 23 -28
7z"/>
<path d="M8899 6623 c-13 -15 -12 -15 9 -4 23 12 28 21 13 21 -5 0 -15 -7 -22
-17z"/>
<path d="M8324 6585 c22 -19 44 -35 50 -35 12 0 -39 45 -69 61 -11 5 -2 -6 19
-26z"/>
<path d="M4693 6585 c0 -11 4 -12 14 -4 7 6 13 13 13 15 0 2 -6 4 -13 4 -8 0
-14 -7 -14 -15z"/>
<path d="M4742 6588 c2 -6 14 -13 27 -15 20 -3 21 -1 7 12 -17 18 -39 20 -34
3z"/>
<path d="M4755 6559 c-10 -15 3 -25 16 -12 7 7 7 13 1 17 -6 3 -14 1 -17 -5z"/>
<path d="M6510 6565 c0 -11 63 -43 76 -38 22 8 -17 43 -48 43 -16 0 -28 -2
-28 -5z"/>
<path d="M8813 6559 c9 -6 15 -14 12 -20 -4 -5 11 -9 32 -9 l38 0 -44 20 c-46
21 -68 26 -38 9z"/>
<path d="M8393 6524 c0 -15 33 -33 116 -65 21 -9 23 -8 10 7 -12 15 -107 74
-120 74 -3 0 -6 -7 -6 -16z"/>
<path d="M6375 6520 c3 -5 8 -10 11 -10 2 0 4 5 4 10 0 6 -5 10 -11 10 -5 0
-7 -4 -4 -10z"/>
<path d="M9042 6505 c0 -16 2 -22 5 -12 2 9 2 23 0 30 -3 6 -5 -1 -5 -18z"/>
<path d="M2528 6493 c-6 -16 -12 -55 -15 -87 -3 -49 0 -62 16 -77 18 -17 20
-17 35 -1 9 11 13 27 9 40 -3 13 -1 22 6 22 6 0 11 -6 11 -14 0 -8 5 -18 12
-22 14 -9 2 76 -13 91 -7 7 -8 5 -4 -6 4 -10 2 -20 -4 -24 -7 -4 -11 4 -11 19
0 13 5 26 10 28 14 4 -11 58 -28 58 -7 0 -17 -12 -24 -27z"/>
<path d="M4754 6485 c3 -8 9 -22 12 -30 8 -19 -5 -19 -31 0 -17 14 -21 13 -42
-11 -30 -35 -31 -59 -2 -44 11 6 28 9 37 7 12 -3 9 -6 -10 -11 -27 -8 -39 -26
-18 -26 6 0 10 -7 10 -15 0 -20 56 -20 94 0 16 9 37 15 45 14 36 -3 61 2 61
12 0 7 -15 9 -42 5 -41 -6 -42 -6 -18 8 14 8 28 13 32 13 4 -1 15 8 23 20 12
17 13 27 5 43 -6 11 -14 20 -18 21 -4 0 -38 3 -76 5 -58 4 -67 2 -62 -11z m66
-106 c0 -5 -19 -9 -42 -8 l-43 1 30 13 c30 13 55 10 55 -6z"/>
<path d="M7148 6453 c6 -2 12 -9 12 -14 0 -6 -4 -7 -10 -4 -5 3 -10 2 -10 -3
0 -16 12 -21 25 -9 14 13 2 38 -19 36 -7 0 -6 -2 2 -6z"/>
<path d="M4950 6440 c0 -5 5 -10 11 -10 5 0 7 5 4 10 -3 6 -8 10 -11 10 -2 0
-4 -4 -4 -10z"/>
<path d="M8540 6446 c0 -12 57 -38 88 -41 36 -3 37 -3 12 10 -14 8 -35 14 -47
15 -12 0 -25 5 -28 10 -6 10 -25 14 -25 6z"/>
<path d="M8989 6433 c-13 -16 -12 -17 4 -4 9 7 17 15 17 17 0 8 -8 3 -21 -13z"/>
<path d="M3585 6411 c11 -13 34 -32 50 -43 l30 -21 -25 24 c-14 13 -37 33 -50
44 l-25 20 20 -24z"/>
<path d="M9047 6416 c-4 -10 -1 -13 8 -9 8 3 12 9 9 14 -7 12 -11 11 -17 -5z"/>
<path d="M3670 6380 c41 -36 80 -54 65 -30 -8 13 -91 70 -102 70 -4 -1 12 -19
37 -40z"/>
<path d="M1780 6371 c10 -20 70 -61 89 -61 24 0 9 19 -28 33 -21 9 -41 23 -44
31 -4 9 -11 16 -17 16 -7 0 -8 -6 0 -19z"/>
<path d="M8995 6370 c-3 -6 1 -7 9 -4 18 7 21 14 7 14 -6 0 -13 -4 -16 -10z"/>
<path d="M8848 6354 c-16 -8 -28 -17 -28 -19 0 -12 30 -3 51 15 28 23 15 25
-23 4z"/>
<path d="M1920 6335 c-33 -11 -33 -12 -12 -19 26 -9 28 -28 5 -51 -15 -15 -14
-16 13 -13 24 2 30 9 37 41 12 48 2 58 -43 42z"/>
<path d="M1620 6328 c-7 -37 -33 -275 -37 -333 -6 -97 10 -173 33 -155 8 7 14
24 14 38 0 29 34 87 55 96 23 9 18 66 -11 127 -29 59 -38 113 -24 139 5 10 6
21 2 25 -7 7 -9 13 -11 45 0 11 -5 20 -11 20 -5 0 -10 -1 -10 -2z"/>
<path d="M2295 6300 c20 -23 29 -21 19 4 -3 9 -13 16 -22 16 -13 0 -12 -3 3
-20z"/>
<path d="M8721 6282 c-60 -40 -176 -142 -162 -142 6 0 8 -7 5 -15 -4 -10 -2
-13 8 -10 29 11 46 -69 52 -250 4 -152 7 -175 28 -213 13 -24 27 -43 31 -42
13 2 65 -68 79 -106 10 -30 34 -51 45 -41 2 3 4 24 5 48 1 53 -21 138 -51 196
-22 45 -29 113 -10 113 11 0 11 7 -6 95 -2 11 -7 30 -10 41 -4 12 -2 25 3 28
6 4 8 21 5 40 -3 19 -1 36 6 40 8 5 11 -13 11 -57 0 -36 7 -80 15 -98 13 -32
14 -25 14 111 1 142 -7 188 -25 159 -5 -8 -11 -32 -15 -54 -5 -33 -7 -29 -8
31 -1 44 4 75 11 82 10 10 10 15 -2 22 -11 7 -11 10 -2 10 7 0 24 10 38 23 22
21 22 23 5 23 -11 0 -42 -15 -70 -34z m6 -57 c-4 -8 -11 -15 -17 -15 -7 0 -7
6 0 21 13 23 26 19 17 -6z m-28 -551 c-6 -13 -16 -21 -21 -18 -10 7 -1 59 16
89 10 18 11 17 14 -14 2 -19 -2 -45 -9 -57z"/>
<path d="M2220 6281 c0 -5 5 -13 10 -16 6 -3 10 -2 10 4 0 5 -4 13 -10 16 -5
3 -10 2 -10 -4z"/>
<path d="M3774 6266 c11 -9 24 -16 30 -16 12 0 7 5 -24 19 -24 11 -24 11 -6
-3z"/>
<path d="M7230 6265 c1 -6 7 -21 16 -35 l15 -25 -7 25 c-7 26 -24 52 -24 35z"/>
<path d="M2072 6227 c-28 -30 -28 -33 8 -52 40 -21 42 -20 38 27 -4 50 -16 57
-46 25z"/>
<path d="M4827 6233 c-12 -11 -8 -23 8 -23 8 0 15 -6 15 -12 0 -7 15 -23 32
-35 l31 -22 32 27 c32 27 28 47 -8 36 -11 -4 -17 -1 -15 8 3 14 -3 14 -40 3
-15 -4 -24 -2 -28 9 -7 17 -16 20 -27 9z"/>
<path d="M4972 6162 l-20 -28 49 -2 c52 -2 60 4 31 29 -34 29 -40 29 -60 1z"/>
<path d="M2155 6160 c-4 -12 -5 -24 -2 -27 3 -2 8 5 12 17 4 12 5 24 2 27 -3
2 -8 -5 -12 -17z"/>
<path d="M1874 6138 c3 -13 8 -41 11 -62 5 -29 9 -36 16 -25 13 20 11 83 -3
97 -19 19 -29 14 -24 -10z"/>
<path d="M2009 6101 c-7 -14 -26 -43 -42 -63 -21 -28 -26 -41 -18 -55 5 -10
12 -27 16 -38 6 -19 7 -19 17 -1 8 15 12 16 19 5 19 -30 95 101 87 151 -2 17
-10 23 -34 25 -26 2 -35 -3 -45 -24z"/>
<path d="M2156 6107 c-12 -12 -19 -34 -19 -58 0 -22 -4 -39 -9 -39 -5 0 -6 -5
-2 -11 3 -6 1 -14 -5 -18 -16 -10 -2 -41 23 -51 21 -9 21 -9 -1 -9 -13 -1 -23
-7 -23 -15 0 -9 8 -12 23 -9 23 5 24 8 19 76 -2 40 1 90 7 111 6 22 9 41 8 41
-1 1 -10 -7 -21 -18z"/>
<path d="M8000 6120 c-26 -16 -3 -22 27 -6 23 13 24 15 8 15 -11 1 -27 -3 -35
-9z"/>
<path d="M4135 6110 c3 -5 15 -10 26 -10 23 0 26 -27 3 -32 -9 -2 10 -17 45
-35 72 -38 79 -36 17 3 -25 16 -42 32 -40 36 12 19 -8 48 -32 48 -14 0 -22 -4
-19 -10z"/>
<path d="M5015 6074 c17 -14 40 -34 51 -45 12 -10 28 -19 35 -19 8 0 28 -9 44
-20 35 -23 81 -26 88 -5 6 15 -36 64 -81 93 -16 10 -51 17 -96 19 l-71 2 30
-25z"/>
<path d="M7480 6069 c-30 -5 -57 -14 -61 -20 -3 -6 -9 -10 -13 -9 -4 1 -12 -1
-19 -3 -13 -6 30 -11 83 -9 61 1 162 14 157 19 -3 2 -8 4 -11 4 -3 -1 -22 6
-42 14 -20 8 -37 14 -38 14 0 -1 -26 -5 -56 -10z"/>
<path d="M1470 6044 c0 -8 5 -12 10 -9 6 3 10 10 10 16 0 5 -4 9 -10 9 -5 0
-10 -7 -10 -16z"/>
<path d="M8323 6041 c-34 -9 -65 -20 -69 -23 -3 -4 37 -7 91 -6 l98 1 23 -39
c13 -21 24 -47 24 -56 0 -9 5 -20 11 -24 8 -5 9 6 4 36 -4 24 -7 60 -7 81 1
41 -13 58 -31 40 -14 -14 -54 -14 -62 -1 -3 6 -9 9 -13 9 -4 -1 -35 -9 -69
-18z"/>
<path d="M4315 6013 c0 -24 6 -29 40 -38 22 -6 54 -24 71 -40 17 -17 51 -41
75 -54 l44 -25 -27 33 c-16 18 -28 41 -28 51 0 20 -77 70 -108 70 -11 0 -25 7
-32 15 -19 23 -36 18 -35 -12z"/>
<path d="M6770 5990 c-13 -8 -12 -10 3 -10 9 0 17 5 17 10 0 12 -1 12 -20 0z"/>
<path d="M6725 5980 c-3 -6 1 -7 9 -4 18 7 21 14 7 14 -6 0 -13 -4 -16 -10z"/>
<path d="M1490 5969 c0 -7 -7 -21 -17 -31 -13 -15 -14 -23 -5 -43 20 -44 41
-31 40 25 0 28 -4 53 -9 56 -5 3 -9 0 -9 -7z"/>
<path d="M6580 5960 c-35 -7 -35 -7 -5 -9 17 0 37 4 45 9 17 11 11 11 -40 0z"/>
<path d="M6468 5923 c7 -3 16 -2 19 1 4 3 -2 6 -13 5 -11 0 -14 -3 -6 -6z"/>
<path d="M4755 5889 c-17 -5 -38 -22 -48 -39 -17 -29 -17 -30 0 -23 10 3 24
11 31 16 7 5 16 7 20 2 4 -4 -8 -20 -27 -35 l-33 -28 28 -19 c15 -10 44 -19
64 -20 33 -1 74 -9 245 -47 83 -19 115 -20 115 -4 0 6 -3 9 -6 5 -6 -6 -92 23
-126 43 -24 13 -41 13 -32 -1 4 -7 1 -10 -7 -7 -8 3 -13 10 -12 16 5 21 -153
155 -177 151 -3 0 -19 -5 -35 -10z"/>
<path d="M2108 5833 c-29 -84 -31 -119 -13 -216 22 -115 30 -132 44 -95 8 22
15 26 37 22 15 -3 38 -14 52 -24 36 -29 70 -24 43 6 -4 5 -14 30 -21 56 -7 26
-19 53 -26 59 -23 19 -16 53 16 84 17 16 30 34 30 41 0 13 -95 104 -109 104
-5 0 -15 2 -23 5 -9 4 -19 -11 -30 -42z m79 -248 c20 -8 34 -17 32 -19 -7 -7
-99 17 -99 26 0 12 27 10 67 -7z"/>
<path d="M8503 5720 c5 -120 31 -247 58 -274 5 -6 9 -18 9 -27 0 -33 20 -30
36 5 16 33 16 36 -9 79 -27 45 -47 119 -67 242 -20 124 -32 112 -27 -25z"/>
<path d="M1431 5763 c0 -25 1 -26 9 -8 12 27 12 35 0 35 -5 0 -10 -12 -9 -27z"/>
<path d="M8814 5724 c3 -22 9 -67 12 -101 4 -35 10 -63 14 -63 4 0 10 -9 13
-20 3 -11 10 -20 15 -20 16 0 25 40 14 64 -5 11 -19 53 -31 93 -25 81 -47 110
-37 47z"/>
<path d="M2654 5716 c3 -21 10 -44 16 -50 9 -8 10 -1 5 29 -10 54 -27 72 -21
21z"/>
<path d="M5520 5722 c0 -18 15 -22 46 -12 16 4 22 9 14 9 -8 1 -25 4 -37 7
-13 4 -23 2 -23 -4z"/>
<path d="M1761 5697 c-19 -49 -23 -76 -17 -102 10 -41 21 -29 33 37 14 70 2
114 -16 65z"/>
<path d="M1460 5671 c0 -6 4 -13 10 -16 6 -3 7 1 4 9 -7 18 -14 21 -14 7z"/>
<path d="M5379 5676 c-14 -13 -218 -23 -272 -14 -18 4 -26 1 -24 -6 2 -6 23
-14 48 -17 45 -6 42 -11 -11 -13 -16 0 -30 -5 -30 -11 1 -15 126 -7 265 17 66
11 122 22 125 25 3 3 -15 3 -40 -1 -90 -13 -216 -26 -240 -25 -14 1 16 7 65
15 50 7 113 17 140 22 46 9 47 10 14 11 -20 0 -38 -1 -40 -3z"/>
<path d="M1830 5644 c0 -3 6 -29 14 -57 8 -29 17 -71 20 -94 6 -38 4 -43 -14
-43 -24 0 -24 -5 -1 -49 19 -36 38 -28 26 10 -4 13 -2 25 5 29 21 13 17 130
-5 168 -17 28 -45 51 -45 36z"/>
<path d="M2670 5631 c0 -16 27 -61 33 -55 3 4 0 19 -9 35 -15 29 -24 37 -24
20z"/>
<path d="M2360 5579 c-6 -22 -14 -47 -17 -55 -4 -10 2 -14 20 -14 29 0 42 34
32 81 -9 41 -22 36 -35 -12z"/>
<path d="M2520 5551 c0 -6 5 -13 10 -16 6 -3 10 1 10 9 0 9 -4 16 -10 16 -5 0
-10 -4 -10 -9z"/>
<path d="M2601 5544 c0 -11 3 -14 6 -6 3 7 2 16 -1 19 -3 4 -6 -2 -5 -13z"/>
<path d="M8680 5554 c0 -3 9 -17 20 -31 21 -27 27 -15 10 18 -10 18 -30 27
-30 13z"/>
<path d="M9006 5504 c-4 -14 -5 -29 -2 -31 3 -3 8 7 12 21 3 15 4 29 1 32 -2
3 -8 -7 -11 -22z"/>
<path d="M2740 5467 c5 -23 8 -76 8 -117 0 -41 3 -88 5 -105 8 -43 -6 -111
-22 -107 -7 1 -10 -2 -6 -8 3 -5 3 -10 -2 -10 -4 0 -9 -17 -11 -38 -1 -20 -4
-49 -6 -63 -2 -22 0 -25 17 -21 10 3 30 15 44 28 24 22 98 42 111 29 8 -8 12
-46 15 -130 1 -33 7 -63 12 -67 6 -5 5 -8 -3 -8 -9 0 -10 -5 -2 -19 16 -31 18
-117 2 -113 -10 2 -12 -7 -8 -30 3 -18 0 -38 -6 -45 -12 -15 17 -123 34 -123
5 0 9 21 8 48 -1 26 -1 52 1 57 4 19 8 274 5 357 -1 14 -4 30 -8 34 -14 13 -8
65 8 82 13 13 15 29 10 81 -13 148 -22 178 -56 189 -19 7 -31 7 -39 -1 -8 -8
-11 -6 -11 6 0 20 40 23 58 5 16 -16 15 2 -1 22 -7 9 -25 17 -41 18 -16 1 -37
9 -46 17 -13 12 -19 12 -29 2 -7 -6 -12 -7 -11 -2 6 29 -2 55 -19 64 -17 10
-18 7 -11 -32z m177 -829 c-3 -8 -6 -5 -6 6 -1 11 2 17 5 13 3 -3 4 -12 1 -19z"/>
<path d="M5080 5492 c-42 -23 -50 -42 -18 -42 14 0 35 13 50 30 30 34 18 38
-32 12z"/>
<path d="M2092 5420 c9 -26 13 -30 16 -16 2 10 -3 26 -12 35 -15 15 -16 13 -4
-19z"/>
<path d="M1942 5415 c0 -16 2 -22 5 -12 2 9 2 23 0 30 -3 6 -5 -1 -5 -18z"/>
<path d="M1980 5392 c0 -5 6 -14 13 -21 10 -11 9 -13 -3 -9 -10 4 -16 0 -16
-11 0 -9 -4 -41 -9 -71 -9 -62 -9 -82 0 -127 8 -37 31 -61 45 -47 15 15 25
124 11 124 -6 0 -11 9 -11 21 0 13 4 18 12 13 8 -5 9 0 3 17 -4 13 -10 43 -12
66 -3 23 -11 44 -19 47 -8 3 -14 2 -14 -2z"/>
<path d="M2444 5390 c-31 -12 -36 -24 -20 -46 10 -13 11 -24 4 -37 -13 -25 -6
-30 25 -16 22 10 25 16 20 41 -4 19 -1 33 7 38 7 4 9 13 6 19 -8 13 -13 13
-42 1z"/>
<path d="M8650 5382 c0 -7 -11 -18 -25 -24 -14 -6 -25 -17 -25 -24 0 -21 -22
-28 -35 -11 -10 15 -14 13 -34 -14 l-22 -30 35 -14 c20 -8 39 -15 44 -15 4 0
22 -14 39 -30 23 -23 34 -46 44 -95 28 -144 42 23 14 181 -6 40 -34 99 -35 76z"/>
<path d="M1551 5354 c0 -11 3 -14 6 -6 3 7 2 16 -1 19 -3 4 -6 -2 -5 -13z"/>
<path d="M2090 5330 c0 -19 3 -45 6 -57 5 -19 8 -20 20 -8 19 19 17 45 -6 75
l-20 25 0 -35z"/>
<path d="M8723 5265 c0 -27 2 -38 4 -22 2 15 2 37 0 50 -2 12 -4 0 -4 -28z"/>
<path d="M4870 5273 c-37 -44 -68 -90 -75 -111 -7 -23 -6 -23 15 -5 36 31 93
103 74 96 -14 -5 -15 -3 -5 15 14 27 11 28 -9 5z"/>
<path d="M8805 5198 c-9 -35 -21 -74 -25 -88 -4 -14 -16 -55 -25 -93 -10 -37
-21 -69 -25 -72 -9 -6 -35 32 -43 60 -2 11 -5 -5 -6 -37 -2 -107 24 -163 138
-289 62 -69 105 -125 108 -142 10 -51 22 -7 28 104 3 57 7 191 9 296 l4 193
-46 -27 c-26 -14 -54 -32 -63 -40 -36 -31 -41 -18 -34 92 4 58 5 105 3 105 -3
0 -13 -28 -23 -62z"/>
<path d="M2040 5168 c0 -7 5 -20 10 -28 8 -12 10 -9 10 13 0 15 -4 27 -10 27
-5 0 -10 -6 -10 -12z"/>
<path d="M2250 5130 c0 -5 4 -10 9 -10 6 0 13 5 16 10 3 6 -1 10 -9 10 -9 0
-16 -4 -16 -10z"/>
<path d="M2050 5101 c0 -28 -11 -52 -21 -45 -5 3 -9 0 -9 -6 0 -6 8 -10 17 -8
19 3 37 65 22 74 -5 3 -9 -4 -9 -15z"/>
<path d="M2086 5112 c-2 -4 -13 -46 -22 -93 l-18 -85 28 -59 c16 -32 31 -77
34 -99 2 -23 8 -45 12 -51 11 -15 38 -105 45 -152 4 -24 11 -45 16 -49 5 -3 9
-13 9 -23 0 -21 91 -295 109 -329 13 -24 36 -20 27 5 -4 8 -1 11 5 8 6 -4 17
1 24 11 9 12 14 14 15 6 0 -8 7 -11 18 -8 14 5 22 -4 37 -36 10 -24 20 -37 23
-30 2 6 11 12 19 12 13 0 13 3 3 15 -10 12 -9 15 6 15 15 0 16 2 5 9 -7 5 -13
21 -13 35 0 18 -5 25 -16 24 -8 -2 -16 5 -17 15 -4 20 17 22 48 6 14 -8 22 -8
25 -1 4 13 42 3 42 -11 0 -7 3 -7 9 -2 13 14 32 87 21 80 -5 -3 -15 6 -23 21
-12 23 -11 35 15 112 36 106 47 127 49 92 0 -14 0 -45 -1 -69 -1 -30 2 -41 10
-36 7 4 11 35 11 78 -1 129 -2 125 18 120 12 -3 24 4 34 17 15 22 15 21 22
-10 4 -17 13 -34 20 -36 7 -3 16 -16 19 -29 3 -13 16 -25 30 -29 20 -5 24 -14
30 -66 4 -33 11 -60 17 -60 12 0 1 -94 -12 -98 -13 -5 -11 -139 2 -148 7 -4 9
-21 6 -40 -7 -40 9 -45 23 -8 7 18 5 39 -9 80 -15 45 -16 63 -8 100 9 37 13
43 19 28 12 -28 -1 265 -14 306 -13 43 -36 70 -53 64 -7 -3 -16 0 -21 7 -5 9
-2 10 11 6 14 -6 16 -3 12 12 -4 17 -1 18 27 10 30 -8 31 -8 9 8 -13 8 -23 23
-23 33 0 20 -57 73 -70 65 -9 -6 -23 72 -15 86 4 5 0 9 -8 9 -19 0 -29 -53
-17 -84 8 -23 7 -25 -28 -28 -33 -3 -37 -6 -34 -28 1 -14 -3 -35 -9 -47 -11
-20 -14 -21 -33 -8 -26 19 -40 19 -33 0 4 -8 2 -17 -4 -21 -5 -3 -9 -30 -8
-61 2 -38 -2 -57 -11 -63 -10 -6 -14 -24 -12 -54 1 -34 -3 -48 -16 -55 -9 -6
-13 -11 -8 -11 5 0 1 -9 -9 -20 -11 -12 -15 -27 -11 -43 4 -19 -2 -31 -28 -55
-19 -17 -37 -40 -41 -52 -5 -17 -10 -19 -21 -9 -8 6 -14 17 -14 24 0 8 -11 27
-25 43 -20 24 -25 41 -27 103 -3 73 -2 77 32 119 32 40 60 86 60 96 0 3 -13
-2 -29 -10 -45 -24 -81 -73 -81 -111 0 -39 -12 -51 -37 -36 -10 6 -12 11 -5
11 7 0 12 14 12 34 0 18 9 45 20 59 22 27 27 48 8 29 -22 -22 -30 -12 -23 28
6 33 2 48 -20 85 -14 25 -34 45 -43 46 -10 0 -12 3 -4 6 7 3 12 22 12 46 l0
41 33 -32 c18 -18 36 -32 39 -32 9 0 -2 70 -14 93 -7 13 -3 28 13 53 12 19 19
38 16 41 -4 3 -28 -1 -54 -10 -55 -18 -65 -14 -116 42 -39 43 -43 46 -51 33z
m81 -262 c5 -19 6 -69 3 -110 l-6 -75 -12 40 c-7 22 -15 68 -19 102 -9 96 13
125 34 43z m543 -105 c18 -22 8 -27 -29 -14 -26 9 -35 9 -41 0 -5 -10 -9 -9
-13 2 -7 20 -4 22 36 25 21 2 39 -4 47 -13z m-60 -76 c0 -5 -4 -9 -10 -9 -5 0
-10 7 -10 16 0 8 5 12 10 9 6 -3 10 -10 10 -16z m-336 -445 c3 -8 2 -12 -4 -9
-6 3 -10 10 -10 16 0 14 7 11 14 -7z"/>
<path d="M2209 5110 c-21 -14 -2 -24 23 -13 17 7 19 11 6 15 -8 4 -21 2 -29
-2z"/>
<path d="M1371 5094 c0 -11 3 -14 6 -6 3 7 2 16 -1 19 -3 4 -6 -2 -5 -13z"/>
<path d="M2819 4980 c-6 -29 -6 -80 1 -80 4 0 17 -19 29 -42 14 -29 21 -36 21
-22 0 41 -45 169 -51 144z"/>
<path d="M3907 4783 c-9 -2 -15 -8 -12 -13 3 -4 -4 -10 -15 -13 -11 -3 -18 -1
-15 3 3 4 -11 3 -30 -2 -18 -6 -37 -18 -40 -26 -7 -18 -7 -18 33 -25 24 -5 34
-3 38 8 10 24 36 18 32 -7 -3 -21 1 -23 38 -21 43 3 43 4 45 -59 0 -15 6 -32
14 -38 22 -18 29 24 10 64 -14 28 -14 38 -4 54 12 19 9 24 -19 51 -31 31 -40
33 -75 24z"/>
<path d="M1250 4719 c0 -5 5 -7 10 -4 6 3 10 8 10 11 0 2 -4 4 -10 4 -5 0 -10
-5 -10 -11z"/>
<path d="M2830 4726 c0 -2 9 -23 20 -47 19 -42 27 -32 14 18 -5 17 -34 42 -34
29z"/>
<path d="M1223 4658 c-25 -32 -26 -40 -4 -29 11 7 21 18 21 26 0 18 -5 19 -17
3z"/>
<path d="M1191 4584 c0 -11 3 -14 6 -6 3 7 2 16 -1 19 -3 4 -6 -2 -5 -13z"/>
<path d="M4140 4552 c0 -5 7 -9 15 -9 8 0 12 4 9 9 -3 4 -9 8 -15 8 -5 0 -9
-4 -9 -8z"/>
<path d="M8953 4450 c0 -25 2 -35 4 -22 2 12 2 32 0 45 -2 12 -4 2 -4 -23z"/>
<path d="M2051 4410 c0 -30 4 -62 9 -70 12 -19 12 76 0 105 -6 14 -9 5 -9 -35z"/>
<path d="M8679 4446 c-125 -45 -254 -227 -194 -276 21 -17 34 -4 41 40 12 75
145 183 234 191 20 2 41 0 47 -4 14 -9 25 6 17 26 -13 35 -82 46 -145 23z
m-62 -83 c-9 -9 -19 -14 -23 -11 -10 10 6 28 24 28 15 0 15 -1 -1 -17z"/>
<path d="M7842 4388 c-15 -15 -15 -28 -1 -28 6 0 27 -7 46 -17 30 -14 36 -14
44 -2 14 22 11 26 -31 43 -48 19 -43 19 -58 4z"/>
<path d="M2841 4289 c-1 -23 28 -76 29 -54 0 6 7 -1 15 -15 l14 -25 1 31 c0
35 -29 71 -31 38 0 -12 -6 -5 -14 16 -12 32 -14 33 -14 9z"/>
<path d="M2240 4169 c0 -19 -2 -20 -16 -8 -15 12 -16 10 -9 -21 10 -49 18 -59
25 -31 8 34 24 36 40 6 12 -23 12 -28 0 -35 -11 -7 -17 -4 -22 13 -3 13 -6 -3
-7 -40 -1 -34 2 -69 6 -79 6 -16 7 -16 14 2 7 17 8 16 9 -6 0 -14 12 -52 25
-85 14 -33 25 -65 25 -72 0 -20 51 -73 71 -73 18 0 23 -10 19 -39 -3 -24 57
-73 80 -66 25 8 26 21 3 27 -25 7 -59 123 -42 144 14 17 37 3 38 -24 1 -37 5
-52 12 -52 4 0 10 -12 14 -27 3 -15 15 -46 26 -70 10 -23 19 -49 19 -57 0 -8
4 -17 9 -20 5 -3 7 -16 3 -28 -3 -12 -1 -19 5 -15 5 3 24 -23 41 -59 18 -36
37 -62 42 -59 6 3 10 30 10 58 0 59 16 127 30 127 5 0 14 -9 20 -20 9 -18 102
-142 122 -165 4 -5 -3 18 -17 52 -17 43 -22 69 -17 84 8 20 9 20 15 5 4 -10
13 -16 20 -13 8 3 20 1 28 -4 10 -6 10 -9 2 -9 -18 0 -17 -65 1 -79 37 -31 66
41 31 79 -8 9 -12 25 -9 37 6 20 7 20 26 5 11 -10 24 -26 28 -37 7 -16 9 -12
9 17 1 32 -3 39 -23 44 -13 3 -36 19 -51 36 l-27 30 -22 -21 c-12 -12 -25 -19
-28 -16 -2 3 -23 6 -46 7 -44 1 -84 28 -96 63 -3 11 -21 38 -40 59 -27 33 -40
40 -72 41 -21 1 -39 7 -39 13 0 6 -3 14 -7 18 -5 4 -8 14 -8 21 0 8 -15 41
-34 73 -19 32 -32 61 -29 64 4 3 1 6 -6 6 -7 0 -10 3 -8 8 3 4 -2 14 -11 21
-14 13 -15 12 -10 -7 13 -50 -10 -25 -41 44 -21 47 -37 71 -45 67 -6 -4 -5 1
3 10 9 12 17 14 26 7 8 -7 12 -5 12 4 0 10 -11 14 -31 14 -16 -1 -32 4 -34 11
-2 6 -17 18 -33 26 -28 15 -29 15 -29 -6z m213 -291 c-6 -8 -7 -22 -2 -33 16
-42 1 -51 -20 -11 -11 20 -11 27 5 43 21 21 33 22 17 1z m368 -325 c-22 -30
-31 -29 -31 6 0 31 17 44 36 27 8 -8 7 -16 -5 -33z"/>
<path d="M2736 4175 c4 -8 10 -15 15 -15 4 0 6 7 3 15 -4 8 -10 15 -15 15 -4
0 -6 -7 -3 -15z"/>
<path d="M7600 4171 c12 -23 30 -36 30 -22 0 10 -27 41 -36 41 -3 0 0 -9 6
-19z"/>
<path d="M8814 4182 c-17 -11 -26 -72 -11 -72 6 0 4 -5 -5 -11 -21 -12 -24
-31 -4 -23 13 5 46 77 46 102 0 14 -10 15 -26 4z"/>
<path d="M2674 4145 c22 -34 20 -39 -6 -15 -26 24 -46 26 -55 4 -3 -10 -13
-14 -25 -11 -11 3 -21 0 -24 -8 -5 -11 -10 -11 -32 1 -35 18 -62 18 -62 -1 0
-8 4 -15 8 -15 5 0 14 -10 20 -22 8 -18 11 -19 11 -5 1 20 21 23 21 3 0 -8 10
-16 23 -18 l22 -3 -21 -21 c-21 -21 -20 -37 1 -41 6 -1 17 -4 26 -8 10 -4 28
5 48 24 18 17 36 30 39 30 30 -5 42 4 48 36 8 45 -10 90 -37 92 -19 2 -20 1
-5 -22z"/>
<path d="M8620 4085 c-11 -30 -21 -31 -45 -5 -26 29 -35 25 -35 -16 0 -19 -5
-44 -11 -56 -13 -25 -14 -24 44 -31 41 -6 47 -4 47 11 0 18 18 42 30 42 4 0 5
-13 2 -30 -3 -18 0 -30 7 -30 18 0 25 31 13 51 -7 10 -12 35 -12 54 0 42 -25
49 -40 10z"/>
<path d="M1520 4057 c0 -27 38 -67 63 -67 9 0 17 -7 17 -16 0 -14 3 -14 15 -4
12 10 15 10 15 -4 0 -9 -4 -16 -10 -16 -5 0 -10 -7 -10 -15 0 -8 8 -15 18 -15
10 0 23 -5 30 -12 21 -21 37 5 24 39 -6 15 -14 43 -17 60 -5 27 -13 34 -43 43
-20 5 -45 10 -54 10 -9 0 -20 5 -23 10 -11 18 -25 11 -25 -13z m110 -27 c0 -5
-4 -10 -10 -10 -5 0 -10 5 -10 10 0 6 5 10 10 10 6 0 10 -4 10 -10z"/>
<path d="M1997 4073 c-4 -3 -7 -18 -7 -33 0 -20 8 -30 36 -44 20 -9 38 -16 39
-14 9 12 11 78 2 87 -12 12 -60 15 -70 4z"/>
<path d="M8820 4073 c0 -10 -57 -43 -73 -43 -16 0 -78 -65 -70 -73 17 -17 45
-5 58 26 9 20 14 25 15 14 0 -10 -5 -27 -10 -38 -9 -15 -7 -21 5 -25 19 -8 24
-3 30 24 2 11 14 37 27 58 39 62 40 64 29 64 -6 0 -11 -3 -11 -7z"/>
<path d="M8897 4056 c-5 -15 -6 -31 -3 -34 8 -8 18 25 14 45 -3 13 -6 10 -11
-11z"/>
<path d="M2510 4029 c0 -5 5 -7 10 -4 6 3 10 8 10 11 0 2 -4 4 -10 4 -5 0 -10
-5 -10 -11z"/>
<path d="M7887 3999 c-20 -22 -28 -40 -26 -62 1 -18 -1 -40 -5 -49 -13 -38
-14 -46 -7 -79 l8 -34 22 48 c25 58 25 57 5 57 -8 0 -13 4 -9 10 3 5 12 7 19
4 10 -4 19 10 29 43 29 94 15 118 -36 62z"/>
<path d="M2110 4011 c0 -6 4 -12 9 -15 4 -3 11 -19 15 -36 4 -21 10 -29 17
-24 8 4 9 3 5 -5 -8 -12 10 -41 24 -41 9 0 32 109 24 121 -8 14 -34 10 -40 -6
-4 -8 -12 -15 -20 -15 -8 0 -14 7 -14 15 0 8 -4 15 -10 15 -5 0 -10 -4 -10 -9z"/>
<path d="M8584 3935 c1 -28 21 -34 30 -9 10 26 7 34 -13 34 -14 0 -19 -7 -17
-25z"/>
<path d="M2060 3925 c0 -8 15 -35 33 -61 27 -39 33 -43 35 -25 4 26 -37 101
-55 101 -7 0 -13 -7 -13 -15z"/>
<path d="M8252 3918 c-7 -7 -12 -19 -12 -28 0 -8 -7 -26 -16 -38 -9 -13 -14
-25 -12 -28 8 -7 37 30 53 69 15 37 10 48 -13 25z"/>
<path d="M8662 3911 c13 -21 38 -17 38 5 0 8 -10 14 -25 14 -22 0 -24 -2 -13
-19z"/>
<path d="M8811 3772 c-13 -25 -14 -32 -2 -32 9 0 23 41 16 48 -2 2 -8 -5 -14
-16z"/>
<path d="M8060 3750 c0 -5 5 -10 10 -10 6 0 10 -12 10 -27 0 -26 1 -26 15 -7
10 13 14 15 15 5 0 -8 3 -11 6 -8 10 10 -24 57 -41 57 -8 0 -15 -4 -15 -10z"/>
<path d="M1710 3705 c0 -29 17 -52 29 -40 7 7 3 19 -9 35 -18 23 -20 23 -20 5z"/>
<path d="M1535 3656 c-17 -17 -44 -41 -60 -52 -46 -33 -22 -40 37 -11 49 23
82 28 48 7 -28 -17 -2 -21 31 -5 24 13 28 19 18 25 -7 5 -18 6 -24 2 -5 -3 -4
2 4 11 10 13 11 20 2 30 -6 8 -8 17 -4 20 3 4 0 6 -8 6 -8 -1 -28 -16 -44 -33z"/>
<path d="M7959 3664 c-5 -14 -9 -37 -9 -51 0 -20 4 -24 20 -20 11 3 20 0 21
-6 0 -7 3 -23 5 -37 7 -38 7 -53 -2 -79 l-7 -24 26 19 c15 10 27 25 27 33 0 7
6 11 14 8 9 -4 23 12 40 43 28 51 31 60 18 60 -4 0 -16 -16 -26 -35 -24 -44
-33 -44 -42 0 -3 19 -12 39 -20 46 -8 6 -14 22 -14 34 0 34 -38 41 -51 9z"/>
<path d="M8185 3681 c-3 -6 1 -13 8 -18 7 -4 17 -17 21 -28 5 -11 10 -15 12
-9 6 15 -13 64 -25 64 -5 0 -12 -4 -16 -9z"/>
<path d="M3711 3666 c-16 -19 -15 -21 17 -30 12 -4 22 -3 22 3 0 5 3 18 6 28
5 17 5 17 -9 0 -14 -17 -15 -17 -19 -1 -3 16 -4 16 -17 0z"/>
<path d="M8290 3653 c0 -25 0 -26 20 -8 11 10 20 21 20 24 0 4 -9 7 -20 8 -15
1 -20 -4 -20 -24z"/>
<path d="M1686 3635 c-3 -8 -14 -15 -25 -15 -31 0 -45 -65 -15 -77 22 -8 64
35 64 68 0 31 -15 47 -24 24z"/>
<path d="M2364 3565 c14 -19 30 -43 34 -54 4 -11 32 -46 63 -78 30 -32 70 -79
88 -105 17 -27 35 -48 40 -48 4 0 -3 39 -15 88 -34 131 -39 147 -51 147 -6 0
-15 3 -19 8 -17 17 -31 6 -26 -20 2 -16 1 -25 -3 -21 -5 4 -14 3 -21 -3 -10
-8 -19 1 -38 38 -22 43 -57 83 -72 83 -4 0 5 -16 20 -35z m164 -96 c-3 -8 -7
-3 -11 10 -4 17 -3 21 5 13 5 -5 8 -16 6 -23z"/>
<path d="M8117 3549 c-16 -28 -26 -54 -23 -57 3 -3 6 -1 6 4 0 6 10 21 23 34
12 14 23 35 24 47 1 13 1 23 0 23 -1 0 -15 -23 -30 -51z"/>
<path d="M8586 3564 c-11 -28 -6 -39 9 -20 8 11 15 23 15 28 0 14 -18 9 -24
-8z"/>
<path d="M2268 3554 c-14 -14 48 -104 71 -104 5 0 7 8 4 18 -6 24 -67 94 -75
86z"/>
<path d="M2200 3543 c0 -11 34 -83 39 -83 3 0 6 20 7 45 1 41 -1 44 -23 43
-12 -1 -23 -4 -23 -5z"/>
<path d="M7773 3517 c-47 -61 -231 -177 -279 -177 -13 0 -43 -14 -66 -30 -38
-27 -124 -65 -169 -75 -56 -12 -141 -76 -119 -90 23 -14 190 60 259 115 39 32
67 36 43 7 -7 -8 -14 -33 -17 -56 -3 -23 -15 -56 -27 -72 -19 -25 -20 -32 -8
-39 23 -14 -1 -51 -71 -111 -119 -103 -239 -228 -233 -243 3 -8 2 -21 -2 -27
-5 -9 -9 -8 -14 5 -5 16 -8 16 -23 -8 -10 -14 -13 -26 -8 -26 5 0 12 4 16 10
3 5 12 7 20 3 8 -3 15 -1 15 5 0 6 24 27 53 48 28 21 66 53 82 71 82 91 145
171 145 184 0 5 11 19 25 33 14 14 25 32 25 41 0 8 6 15 13 15 6 0 32 21 57
46 62 64 194 180 220 194 18 10 24 9 31 -1 4 -7 10 -11 11 -9 2 3 12 18 22 33
10 17 23 26 31 23 10 -3 18 7 25 32 16 59 13 85 -8 80 -15 -4 -18 -1 -14 18 6
31 -11 31 -35 1z m37 -88 c0 -10 -4 -19 -10 -19 -5 0 -10 12 -10 26 0 14 4 23
10 19 6 -3 10 -15 10 -26z m-250 -138 c0 -6 -4 -13 -10 -16 -5 -3 -10 1 -10 9
0 9 5 16 10 16 6 0 10 -4 10 -9z"/>
<path d="M1350 3486 c0 -14 5 -28 10 -31 16 -10 12 -45 -5 -45 -18 0 -18 1 -4
-38 6 -18 15 -29 20 -26 5 3 7 10 3 15 -9 15 16 39 42 39 12 0 29 6 36 13 7 6
28 24 46 40 35 28 31 34 -12 17 -20 -7 -26 -6 -26 4 0 20 -27 27 -40 10 -18
-20 -41 -17 -47 6 -7 28 -23 25 -23 -4z"/>
<path d="M2584 3479 c-3 -6 -2 -15 3 -20 5 -5 9 -1 10 11 2 22 -2 25 -13 9z"/>
<path d="M2609 3449 c-6 -30 -3 -51 8 -60 10 -9 12 -5 7 22 -6 31 -13 48 -15
38z"/>
<path d="M8260 3430 c0 -16 41 -93 46 -87 2 2 -4 25 -15 51 -19 44 -31 58 -31
36z"/>
<path d="M8200 3414 c0 -8 5 -12 10 -9 6 3 10 10 10 16 0 5 -4 9 -10 9 -5 0
-10 -7 -10 -16z"/>
<path d="M7082 3343 c-17 -16 -39 -48 -51 -72 -20 -42 -20 -43 -1 -26 11 10
20 27 20 37 0 10 6 18 13 16 21 -5 77 24 77 39 0 8 -4 11 -10 8 -6 -3 -7 1 -4
9 9 24 -10 19 -44 -11z"/>
<path d="M8567 3331 c-4 -20 -3 -39 3 -45 17 -17 23 1 13 41 l-9 38 -7 -34z"/>
<path d="M2642 3301 c-8 -5 -10 -15 -5 -29 6 -15 12 -19 22 -12 11 6 12 14 5
29 -6 13 -13 18 -22 12z"/>
<path d="M6575 3299 c-12 -19 5 -23 22 -6 16 16 16 17 1 17 -9 0 -20 -5 -23
-11z"/>
<path d="M8605 3270 c-18 -20 -11 -25 19 -14 17 6 23 34 8 34 -5 0 -17 -9 -27
-20z"/>
<path d="M7102 3244 c-12 -21 -3 -56 12 -51 12 4 17 67 5 67 -4 0 -12 -7 -17
-16z"/>
<path d="M8430 3240 c0 -5 5 -10 11 -10 5 0 7 5 4 10 -3 6 -8 10 -11 10 -2 0
-4 -4 -4 -10z"/>
<path d="M2656 3185 c11 -48 25 -76 18 -35 -4 19 -10 42 -15 50 -6 10 -7 5 -3
-15z"/>
<path d="M6318 3194 c-16 -8 -28 -17 -28 -20 0 -3 5 -2 11 2 6 3 15 1 19 -5 5
-8 12 -4 24 13 19 29 13 32 -26 10z"/>
<path d="M8485 3200 c-8 -13 13 -40 30 -40 10 0 11 5 2 25 -13 27 -22 31 -32
15z"/>
<path d="M8738 3205 c-9 -15 -5 -86 5 -76 4 4 7 26 5 47 -2 22 -6 34 -10 29z"/>
<path d="M8616 3155 c-3 -8 -1 -15 3 -15 5 0 11 7 15 15 3 8 1 15 -3 15 -5 0
-11 -7 -15 -15z"/>
<path d="M8662 3163 c0 -5 -2 -16 -7 -26 -10 -24 4 -36 19 -16 6 9 20 19 31
22 17 4 17 5 3 6 -10 0 -18 6 -18 11 0 6 -7 10 -15 10 -8 0 -14 -3 -13 -7z"/>
<path d="M6247 3129 c-9 -5 -22 -7 -28 -4 -6 4 -54 -22 -107 -58 -53 -35 -127
-81 -164 -102 -38 -20 -68 -39 -68 -41 0 -3 6 -2 13 2 8 5 8 2 -2 -9 -15 -19
-36 -24 -25 -6 4 7 1 10 -7 7 -8 -3 -14 -10 -14 -16 0 -6 -6 -17 -13 -24 -11
-11 -12 -10 -6 6 10 27 -15 16 -40 -17 -14 -20 -19 -40 -17 -74 4 -84 11 -82
165 39 178 140 226 183 221 196 -2 7 9 21 25 31 17 10 28 20 25 23 -2 2 13 12
35 22 22 10 40 22 40 27 0 12 -10 11 -33 -2z m-175 -162 c-14 -17 -102 -80
-102 -73 0 5 101 84 109 85 2 1 -1 -5 -7 -12z m-212 -117 c0 -5 -5 -10 -11
-10 -5 0 -7 5 -4 10 3 6 8 10 11 10 2 0 4 -4 4 -10z"/>
<path d="M3191 3109 c-9 -16 -10 -24 0 -35 10 -12 9 -13 -5 -8 -13 5 -15 2
-10 -12 6 -17 5 -17 -9 1 -16 20 -16 20 -17 -2 0 -16 -5 -20 -20 -16 -11 3
-20 10 -21 17 0 6 -4 2 -9 -9 -8 -18 -9 -18 -9 -2 -1 15 -3 16 -15 5 -8 -7
-14 -15 -14 -18 1 -26 -4 -40 -17 -40 -8 0 -15 5 -15 11 0 6 -7 9 -15 5 -8 -3
-15 -2 -15 2 0 4 -9 13 -20 20 -19 11 -22 10 -31 -18 -9 -24 -17 -30 -38 -30
-16 0 -38 -9 -51 -20 -13 -11 -27 -20 -32 -20 -4 0 -8 -8 -9 -17 0 -13 -2 -14
-6 -4 -7 18 -55 60 -69 61 -21 0 -33 22 -23 42 8 15 6 18 -10 18 -17 0 -20 -6
-17 -37 2 -21 7 -81 11 -133 9 -124 9 -125 39 -105 19 13 29 14 45 5 22 -11
25 -6 21 33 -1 17 1 17 34 3 29 -12 37 -12 43 -2 9 15 54 41 66 38 4 -1 7 7 7
18 0 12 -7 20 -17 20 -9 0 -13 3 -10 7 4 3 -1 12 -11 19 -15 12 -14 13 9 12
19 -2 25 -6 21 -17 -3 -9 -1 -12 6 -7 7 4 12 1 12 -8 0 -9 5 -16 11 -16 6 0 8
7 5 16 -3 8 -2 12 4 9 14 -9 12 -43 -2 -48 -10 -3 -8 -9 5 -24 9 -11 17 -27
17 -36 0 -9 8 -17 18 -18 9 0 12 -3 6 -5 -15 -6 -3 -66 14 -72 8 -2 12 12 12
51 0 54 18 87 48 87 7 0 12 5 12 11 0 21 18 -1 23 -30 7 -33 60 -77 79 -64 7
4 27 8 45 9 34 1 47 -14 36 -42 -5 -14 -8 -15 -17 -3 -14 18 -46 21 -46 4 0
-31 84 -76 131 -70 18 2 50 0 71 -4 38 -9 38 -9 39 23 2 50 -1 60 -24 79 -20
18 -22 18 -34 1 -17 -23 -25 -14 -23 27 3 104 1 112 -32 141 -26 22 -34 25
-36 13 -5 -21 -22 -8 -22 16 0 12 -4 17 -11 13 -6 -3 -14 -1 -18 5 -5 7 -12 3
-20 -13 -12 -22 -19 -24 -65 -20 -34 2 -46 1 -36 -6 8 -5 11 -12 7 -17 -11
-11 -25 16 -20 37 3 10 11 21 19 24 8 3 14 14 14 24 0 18 18 42 32 42 4 0 8
-7 8 -15 0 -8 7 -15 15 -15 18 0 19 12 3 28 -7 7 -8 12 -4 12 5 0 2 8 -5 17
-8 10 -9 14 -2 10 8 -5 11 1 9 19 -4 36 -28 49 -45 23z m-271 -219 c0 -5 -8
-10 -17 -10 -15 0 -16 2 -3 10 19 12 20 12 20 0z m280 -110 c0 -5 -5 -10 -11
-10 -5 0 -7 5 -4 10 3 6 8 10 11 10 2 0 4 -4 4 -10z"/>
<path d="M7205 3104 c-20 -17 -23 -22 -8 -15 31 16 43 14 36 -6 -5 -15 -3 -15
13 2 10 11 25 26 33 33 12 10 10 12 -15 12 -16 -1 -42 -12 -59 -26z"/>
<path d="M2675 3100 c3 -5 8 -10 11 -10 2 0 4 5 4 10 0 6 -5 10 -11 10 -5 0
-7 -4 -4 -10z"/>
<path d="M3020 3101 c0 -6 5 -13 10 -16 6 -3 10 1 10 9 0 9 -4 16 -10 16 -5 0
-10 -4 -10 -9z"/>
<path d="M2986 3091 c-4 -7 -5 -15 -2 -18 9 -9 19 4 14 18 -4 11 -6 11 -12 0z"/>
<path d="M2852 3038 c-15 -15 -16 -38 -2 -38 12 0 23 25 18 40 -2 7 -7 7 -16
-2z"/>
<path d="M2500 3032 c0 -5 9 -20 20 -33 l19 -24 -8 29 c-7 28 -31 49 -31 28z"/>
<path d="M6153 2987 c-28 -23 -86 -69 -129 -102 -43 -33 -113 -88 -156 -122
l-78 -62 27 -31 c23 -28 30 -31 62 -25 53 10 71 23 88 62 8 20 37 60 65 89 27
29 62 71 76 93 15 22 45 60 66 86 21 25 37 48 34 50 -2 3 -27 -14 -55 -38z"/>
<path d="M6876 3008 c-53 -86 -67 -110 -63 -114 3 -3 16 14 29 38 13 24 32 55
42 71 10 15 16 27 12 27 -3 0 -12 -10 -20 -22z"/>
<path d="M8036 2994 c-5 -12 -1 -14 17 -9 35 11 44 25 15 25 -14 0 -29 -7 -32
-16z"/>
<path d="M8102 2992 c-26 -13 -32 -21 -30 -41 4 -37 27 -38 34 -2 4 17 13 31
20 31 8 0 14 7 14 15 0 8 -1 14 -2 14 -2 -1 -18 -9 -36 -17z"/>
<path d="M2620 2953 c0 -12 5 -25 10 -28 13 -8 13 15 0 35 -8 12 -10 11 -10
-7z"/>
<path d="M7460 2943 c-40 -16 -90 -55 -90 -71 0 -10 -11 -29 -25 -42 -14 -13
-25 -27 -25 -32 0 -15 17 -8 41 15 33 32 83 51 119 43 27 -5 30 -3 30 18 0 18
-7 25 -30 30 -44 8 -37 26 11 26 24 0 38 4 34 10 -7 11 -40 12 -65 3z"/>
<path d="M3690 2901 c-12 -24 -14 -59 -1 -45 10 10 24 64 17 64 -3 0 -10 -9
-16 -19z"/>
<path d="M8587 2894 c-20 -14 -37 -28 -37 -33 0 -10 34 -41 45 -41 17 0 34
-37 35 -77 0 -23 5 -45 10 -48 6 -4 8 -9 6 -13 -2 -4 -7 -49 -10 -100 -7 -103
8 -128 18 -29 22 228 20 308 -13 346 l-18 20 -36 -25z"/>
<path d="M7633 2874 c-9 -23 11 -38 26 -20 13 16 7 36 -10 36 -5 0 -12 -7 -16
-16z"/>
<path d="M6053 2797 c-43 -44 -65 -77 -74 -108 -7 -24 -17 -50 -23 -58 -9 -12
-7 -12 12 -2 12 6 22 20 22 30 0 25 73 133 110 163 29 23 38 38 22 38 -5 0
-36 -28 -69 -63z"/>
<path d="M2570 2797 c0 -30 7 -60 15 -71 20 -26 31 -12 17 19 -15 32 -16 75
-2 75 18 0 10 18 -10 23 -18 5 -20 0 -20 -46z"/>
<path d="M3671 2825 c0 -12 -5 -25 -10 -30 -14 -16 -23 -55 -12 -55 13 0 34
65 28 87 -4 15 -5 14 -6 -2z"/>
<path d="M7647 2824 c-3 -3 -3 -13 0 -22 4 -15 3 -15 -6 -2 -10 13 -12 13 -21
0 -18 -27 -5 -105 23 -144 16 -22 58 -16 97 14 l25 19 -27 20 c-14 11 -29 33
-33 48 -12 51 -41 84 -58 67z"/>
<path d="M7415 2785 c-22 -8 -54 -30 -72 -50 -28 -33 -35 -36 -66 -30 -30 6
-40 3 -69 -23 -18 -17 -70 -63 -115 -102 -46 -40 -83 -76 -83 -81 0 -11 -30
-78 -61 -141 l-19 -36 36 -21 c19 -12 39 -21 44 -21 17 0 19 32 4 62 -23 45
-11 76 38 98 30 13 48 16 65 9 36 -13 37 -13 94 36 29 25 58 44 64 41 5 -2 18
1 28 6 12 6 17 5 17 -7 0 -17 2 -18 24 -9 21 8 21 24 0 24 -14 0 -14 3 -4 15
17 20 31 19 85 -7 24 -12 48 -19 51 -15 9 8 13 189 7 235 -6 36 -11 37 -68 17z"/>
<path d="M2837 2783 c-14 -13 -6 -43 13 -53 16 -9 18 -8 14 5 -4 8 -1 15 5 15
6 0 11 4 11 10 0 5 -7 7 -15 4 -11 -5 -13 -2 -9 10 6 16 -7 22 -19 9z"/>
<path d="M2916 2781 c-7 -10 -8 -43 -4 -81 2 -18 -1 -24 -12 -22 -15 4 -5 -10
64 -85 33 -36 63 -45 51 -15 -4 9 -8 25 -9 35 0 10 -7 21 -14 26 -7 4 -15 24
-17 45 -6 44 -26 87 -33 68 -2 -6 -8 -12 -14 -12 -6 0 -4 8 5 18 10 10 17 22
17 25 0 10 -28 8 -34 -2z"/>
<path d="M2630 2741 c0 -5 5 -13 10 -16 6 -3 10 -2 10 4 0 5 -4 13 -10 16 -5
3 -10 2 -10 -4z"/>
<path d="M3547 2713 c-3 -10 -8 -31 -11 -46 -4 -16 -16 -31 -28 -36 l-22 -8
23 -12 c16 -9 26 -9 35 -2 16 13 42 -11 31 -29 -3 -5 -2 -10 3 -10 12 0 42 67
42 96 0 13 7 27 15 30 8 4 15 13 15 21 0 8 -6 12 -12 9 -7 -3 -20 -9 -30 -12
-9 -3 -19 -15 -21 -26 -4 -12 -10 -17 -17 -13 -7 4 -10 16 -7 26 3 10 1 21 -3
24 -5 3 -11 -3 -13 -12z"/>
<path d="M2761 2687 c-6 -6 -11 -20 -11 -31 0 -12 -4 -28 -10 -36 -5 -9 -5
-19 2 -27 10 -12 7 -52 -5 -83 -4 -8 -2 -22 3 -30 9 -13 14 -11 35 13 25 28
25 29 8 57 -14 24 -14 31 -4 44 8 9 20 16 27 16 9 0 14 12 14 33 0 26 -6 36
-24 45 -17 7 -27 7 -35 -1z"/>
<path d="M6200 2660 c0 -5 5 -10 11 -10 5 0 7 5 4 10 -3 6 -8 10 -11 10 -2 0
-4 -4 -4 -10z"/>
<path d="M3041 2640 c-1 -14 -4 -36 -6 -50 l-6 -25 11 25 c6 13 9 36 7 50 l-4
25 -2 -25z"/>
<path d="M6207 2627 c-4 -10 -7 -31 -7 -47 0 -17 -8 -33 -22 -43 -18 -11 -20
-18 -12 -27 15 -15 54 -4 54 15 0 7 6 15 13 18 9 3 9 9 0 28 -7 13 -14 35 -15
49 -3 21 -4 22 -11 7z"/>
<path d="M6405 2631 c-6 -11 9 -23 19 -14 9 9 7 23 -3 23 -6 0 -12 -4 -16 -9z"/>
<path d="M6344 2605 c-9 -21 7 -49 30 -53 14 -3 15 0 4 25 -17 41 -26 49 -34
28z"/>
<path d="M2235 2591 c-3 -5 -1 -12 5 -16 5 -3 10 1 10 9 0 18 -6 21 -15 7z"/>
<path d="M2860 2591 c0 -6 11 -31 25 -56 14 -25 22 -45 18 -45 -4 0 0 -7 11
-15 10 -7 15 -18 11 -24 -3 -6 -2 -11 3 -11 4 0 18 -9 29 -20 41 -37 33 6 -13
76 -24 38 -44 71 -44 76 0 4 -9 12 -20 18 -13 7 -20 7 -20 1z"/>
<path d="M3160 2592 c-8 -3 -20 -12 -27 -21 -14 -18 -17 -91 -4 -91 5 0 9 -12
9 -26 0 -22 -4 -25 -24 -20 -32 8 -39 -9 -13 -35 15 -15 18 -24 10 -32 -6 -6
-11 -21 -11 -34 0 -17 8 -24 36 -32 36 -10 64 -6 64 10 0 16 21 9 43 -15 26
-27 63 -41 71 -27 4 6 14 7 23 4 11 -4 14 -3 9 5 -4 7 -3 12 3 12 17 0 68 54
75 80 4 14 12 35 18 47 26 52 -28 101 -104 95 -30 -3 -46 3 -78 28 -30 24 -40
28 -40 16 0 -9 -4 -16 -10 -16 -5 0 -10 11 -10 24 0 25 -16 36 -40 28z m60
-182 c0 -22 -4 -40 -10 -40 -5 0 -10 18 -10 40 0 22 5 40 10 40 6 0 10 -18 10
-40z"/>
<path d="M7670 2564 c-73 -37 -96 -41 -127 -19 -27 19 -37 6 -28 -34 5 -22 0
-35 -20 -59 -26 -31 -31 -42 -16 -42 12 0 61 47 61 58 0 6 7 13 16 16 8 3 13
2 12 -2 -23 -47 -33 -62 -45 -62 -7 0 -13 -4 -13 -10 0 -5 -7 -10 -16 -10 -8
0 -12 -4 -9 -10 3 -5 1 -10 -5 -10 -7 0 -10 -7 -7 -14 4 -10 1 -13 -9 -9 -7 3
-14 0 -14 -6 0 -6 -18 -27 -40 -47 -31 -28 -38 -40 -30 -50 14 -16 -3 -26
-108 -61 -68 -23 -122 -48 -277 -132 -69 -37 -157 -73 -163 -66 -3 3 15 26 41
52 30 29 47 54 47 69 0 13 6 24 13 24 9 0 8 3 -2 9 -8 5 -10 14 -6 21 6 9 4
11 -5 5 -10 -6 -12 -4 -7 7 6 17 -42 78 -61 78 -7 0 -12 5 -12 11 0 18 -26 38
-39 30 -7 -5 -15 -32 -18 -62 -9 -94 -40 -123 -213 -195 -137 -57 -213 -95
-217 -109 -2 -6 3 -20 11 -30 13 -18 25 -20 153 -17 81 1 162 8 196 17 32 8
75 15 95 16 37 1 96 15 77 19 -11 2 29 16 83 30 24 6 36 4 47 -6 12 -12 26
-12 84 -3 68 11 86 21 59 32 -7 3 -3 6 9 6 12 1 24 5 27 10 3 5 18 12 32 15
31 8 114 88 114 110 0 8 5 18 10 21 6 3 10 15 10 25 0 26 21 37 32 17 5 -9 28
-21 51 -27 44 -12 69 -34 61 -54 -3 -7 2 -18 9 -25 30 -24 97 92 167 284 17
50 41 112 51 139 20 50 25 87 12 85 -5 -1 -37 -16 -73 -35z"/>
<path d="M6295 2570 c4 -14 12 -28 18 -31 5 -4 6 -12 3 -18 -4 -6 -3 -11 3
-11 23 0 21 22 -5 53 -25 29 -26 30 -19 7z"/>
<path d="M6563 2549 c-16 -17 -53 -43 -83 -57 -38 -17 -50 -26 -37 -29 35 -9
134 53 158 98 16 30 -7 23 -38 -12z"/>
<path d="M6130 2540 c-13 -8 -13 -10 2 -10 9 0 20 5 23 10 8 13 -5 13 -25 0z"/>
<path d="M6972 2488 c-7 -7 -12 -17 -12 -23 0 -13 -42 -55 -54 -55 -5 0 -6 7
-2 15 3 8 1 15 -4 15 -13 0 -24 -71 -14 -88 18 -27 29 -17 67 62 37 77 42 97
19 74z"/>
<path d="M7776 2460 c-18 -44 -21 -100 -7 -100 9 0 14 19 26 98 8 53 2 54 -19
2z"/>
<path d="M2895 2460 c3 -5 11 -10 16 -10 6 0 7 5 4 10 -3 6 -11 10 -16 10 -6
0 -7 -4 -4 -10z"/>
<path d="M2900 2424 c0 -15 47 -103 60 -114 4 -3 18 -22 32 -43 25 -37 95 -94
104 -85 2 3 -16 26 -41 51 -39 41 -86 110 -120 177 -12 25 -35 34 -35 14z"/>
<path d="M1970 2401 c10 -21 30 -37 30 -26 0 14 -21 45 -31 45 -6 0 -6 -7 1
-19z"/>
<path d="M2456 2411 c-3 -5 1 -11 9 -14 9 -4 12 -1 8 9 -6 16 -10 17 -17 5z"/>
<path d="M3495 2390 c-18 -34 -19 -50 -4 -50 6 0 9 7 5 15 -3 8 -2 15 3 15 5
0 11 11 13 25 7 33 2 32 -17 -5z"/>
<path d="M5241 2408 c-43 -12 -28 -24 41 -33 45 -6 108 9 108 26 0 20 -90 24
-149 7z"/>
<path d="M2737 2392 c-10 -10 -17 -25 -17 -33 0 -20 39 -43 80 -47 19 -1 42
-10 52 -19 16 -14 18 -14 24 0 9 24 -12 53 -60 87 -52 35 -57 36 -79 12z"/>
<path d="M3761 2400 c7 -4 46 -11 84 -14 49 -4 60 -3 35 3 -51 13 -136 20
-119 11z"/>
<path d="M3015 2370 c16 -16 33 -30 38 -30 5 0 -4 14 -20 30 -15 17 -32 30
-37 30 -6 0 3 -13 19 -30z"/>
<path d="M4025 2390 l-60 -7 80 0 c44 0 94 3 110 7 25 6 22 8 -20 7 -27 0 -77
-3 -110 -7z"/>
<path d="M4267 2393 c18 -2 50 -2 70 0 21 2 7 4 -32 4 -38 0 -55 -2 -38 -4z"/>
<path d="M5520 2381 c-8 -5 -34 -12 -57 -16 -24 -4 -43 -11 -43 -16 0 -11 -1
-11 59 2 27 6 55 17 62 25 13 16 2 18 -21 5z"/>
<path d="M8102 2348 c-7 -7 -12 -16 -12 -21 0 -5 -21 -41 -47 -80 -27 -40 -50
-76 -52 -82 -2 -5 -19 -25 -37 -43 -19 -18 -34 -38 -34 -45 0 -7 -9 -18 -20
-25 -11 -7 -20 -20 -20 -29 0 -14 3 -14 21 3 25 22 157 186 182 226 9 15 17
41 17 57 0 16 6 31 13 34 6 2 9 7 6 10 -3 4 -11 1 -17 -5z"/>
<path d="M2465 2325 c-5 -11 -10 -24 -13 -30 -3 -5 3 -3 13 7 9 9 15 22 12 30
-3 9 -7 7 -12 -7z"/>
<path d="M4997 2317 c39 -7 75 -15 79 -19 4 -5 18 -8 31 -8 13 0 40 -7 60 -15
29 -12 38 -13 45 -3 4 8 8 9 8 2 0 -14 61 -41 125 -54 55 -12 115 -38 115 -50
0 -5 -18 -16 -40 -26 -22 -10 -40 -21 -40 -25 0 -4 28 -9 63 -12 34 -3 74 -8
89 -12 24 -6 26 -5 21 16 -6 21 -4 21 40 -10 25 -17 49 -36 52 -41 3 -5 12 -7
20 -3 8 3 15 0 15 -7 0 -6 -5 -8 -11 -4 -8 4 -9 0 -4 -15 5 -15 2 -21 -9 -21
-9 0 -16 -8 -16 -18 0 -9 -12 -35 -26 -56 l-27 -39 47 33 c26 17 50 29 53 26
3 -3 -15 -28 -40 -55 -26 -28 -47 -55 -47 -60 0 -17 36 -31 79 -31 39 0 166
-26 185 -37 5 -3 -6 -19 -25 -34 l-34 -28 30 0 c17 -1 48 4 70 9 55 12 154
-19 111 -36 -9 -3 -16 -13 -16 -21 0 -11 -7 -14 -21 -10 -32 9 -47 -1 -41 -29
5 -28 21 -42 31 -26 3 6 24 12 45 14 l38 3 -21 26 -20 26 24 23 c14 13 25 26
25 30 0 3 -15 12 -34 18 -19 7 -36 18 -39 25 -3 7 -22 25 -43 39 -30 21 -60
30 -134 39 -114 14 -140 23 -140 46 0 9 15 33 34 53 18 19 36 47 40 62 5 23
-2 33 -56 82 -34 31 -66 56 -71 56 -5 0 -20 9 -33 19 -14 11 -62 32 -107 47
-45 15 -98 38 -117 50 -43 29 -140 54 -217 57 -32 1 -62 5 -68 8 -5 4 -41 6
-80 7 l-70 0 72 -11z"/>
<path d="M2546 2274 c-9 -8 -16 -22 -16 -29 0 -8 -5 -17 -12 -21 -14 -9 -65
-7 -81 3 -23 14 -59 11 -76 -6 -9 -9 -24 -16 -32 -14 -8 3 -7 0 4 -7 9 -6 21
-9 26 -6 5 3 11 -4 14 -15 3 -12 10 -18 15 -15 6 3 21 2 35 -3 14 -5 28 -7 32
-3 4 4 16 7 28 7 14 0 27 14 44 48 13 26 28 47 33 47 13 0 13 -57 -1 -81 -8
-15 -7 -24 2 -35 10 -12 8 -17 -7 -28 -14 -11 -21 -11 -26 -3 -8 13 -11 5 -9
-28 0 -11 -2 -14 -5 -7 -11 23 -22 12 -27 -25 -5 -43 -19 -84 -56 -165 -21
-47 -30 -57 -54 -61 -24 -3 -33 2 -48 27 -10 17 -19 45 -20 61 l-1 30 -8 -33
c-6 -27 -2 -45 26 -100 19 -37 34 -72 34 -79 0 -7 14 -39 30 -71 17 -33 30
-66 30 -73 0 -11 2 -11 8 -1 6 9 14 6 32 -13 13 -14 20 -28 17 -32 -4 -3 -1
-13 6 -21 10 -13 9 -15 -10 -10 -18 5 -20 3 -13 -11 5 -9 35 -68 65 -131 58
-117 89 -156 134 -167 55 -13 84 -68 40 -75 -19 -3 -18 -5 10 -26 17 -13 36
-20 41 -17 17 11 11 66 -11 96 -11 16 -18 29 -15 29 17 0 80 -48 138 -107 60
-60 68 -71 66 -104 l-1 -36 -45 34 c-33 25 -53 33 -78 31 -39 -2 -47 -18 -9
-18 13 0 48 -14 77 -31 77 -46 97 -50 138 -26 19 11 37 22 39 23 12 10 -33 52
-60 58 -43 8 -34 14 27 17 37 2 65 -5 106 -24 66 -31 69 -32 62 -12 -8 20 20
20 36 0 7 -9 15 -14 17 -11 7 7 -23 59 -46 80 -12 11 -21 23 -21 29 0 5 -11
18 -25 29 -14 11 -23 23 -20 28 8 12 -35 40 -61 40 l-22 0 21 -38 c21 -39 21
-39 1 -60 -35 -38 -118 -8 -214 79 -31 28 -65 49 -77 49 -13 0 -23 6 -23 13 0
8 -11 24 -25 37 -31 29 -34 79 -6 104 12 11 17 25 14 39 -7 30 -61 143 -88
183 -23 34 -26 68 -40 439 -7 168 -17 235 -35 235 -5 0 -16 -7 -24 -16z m-36
-628 c-7 -51 -25 -56 -46 -13 -15 32 -16 47 -5 139 6 57 19 130 29 163 l17 60
5 -155 c3 -85 3 -173 0 -194z m200 -414 c0 -12 -3 -12 -17 -1 -10 7 -20 14
-22 16 -2 1 6 1 18 0 11 -1 21 -8 21 -15z"/>
<path d="M5682 2278 c2 -6 15 -18 29 -27 l24 -15 -24 27 c-26 29 -35 34 -29
15z"/>
<path d="M2730 2266 c0 -9 5 -16 10 -16 6 0 10 4 10 9 0 6 -4 13 -10 16 -5 3
-10 -1 -10 -9z"/>
<path d="M5774 2262 c24 -27 72 -57 106 -66 16 -4 10 1 -15 15 -22 12 -56 34
-75 48 -32 23 -33 23 -16 3z"/>
<path d="M6315 2259 c9 -13 -96 -116 -204 -199 -133 -104 -161 -119 -228 -126
-53 -6 -63 -4 -81 14 -16 16 -23 18 -31 8 -30 -36 62 -57 163 -36 49 10 69 22
134 78 43 37 104 87 137 112 71 53 145 127 145 146 0 8 -9 14 -21 14 -12 0
-17 -4 -14 -11z"/>
<path d="M2927 2254 c-11 -11 30 -77 80 -129 27 -27 55 -59 63 -71 8 -11 42
-40 75 -64 33 -24 90 -72 127 -107 67 -64 85 -72 106 -51 15 15 16 64 2 73
-15 9 -12 48 5 81 8 16 15 49 15 73 l0 45 -31 -32 c-17 -18 -35 -32 -39 -32
-9 0 -52 41 -113 109 -35 39 -41 42 -75 36 -54 -8 -60 -20 -26 -50 68 -59 68
-60 45 -63 -40 -6 -116 57 -190 156 -24 32 -32 37 -44 26z"/>
<path d="M2620 2173 c0 -44 1 -46 14 -27 8 11 12 31 9 47 -9 44 -23 31 -23
-20z"/>
<path d="M2780 2183 c1 -21 11 -35 41 -56 l41 -28 -7 33 c-6 29 -48 78 -67 78
-5 0 -8 -12 -8 -27z"/>
<path d="M5855 2150 c3 -5 14 -10 23 -10 15 0 15 2 2 10 -20 13 -33 13 -25 0z"/>
<path d="M5329 2114 l-34 -25 30 7 c36 8 38 10 41 29 3 19 4 19 -37 -11z"/>
<path d="M2480 2110 c0 -5 5 -10 11 -10 5 0 7 5 4 10 -3 6 -8 10 -11 10 -2 0
-4 -4 -4 -10z"/>
<path d="M2215 2100 c-9 -15 3 -65 35 -134 l27 -61 -4 55 c-5 62 -30 150 -43
150 -5 0 -12 -5 -15 -10z"/>
<path d="M4500 2100 c-12 -8 -11 -10 5 -9 11 1 34 5 50 9 l30 8 -35 1 c-19 0
-42 -4 -50 -9z"/>
<path d="M4593 2093 c-16 -13 -14 -14 22 -9 22 3 67 6 99 6 84 0 62 11 -28 15
-54 2 -81 -2 -93 -12z"/>
<path d="M5263 2095 c-8 -9 -9 -16 -3 -20 14 -8 30 3 30 21 0 18 -11 17 -27
-1z"/>
<path d="M4785 2090 c4 -6 -13 -10 -44 -10 -27 0 -53 -4 -56 -10 -4 -6 16 -10
54 -10 40 0 65 -5 75 -15 17 -18 116 -21 116 -4 0 10 38 7 88 -7 20 -6 -34 21
-63 32 -19 6 -18 7 5 14 25 8 25 8 -5 10 -136 9 -176 9 -170 0z"/>
<path d="M2631 2020 c-1 -75 25 -234 49 -287 16 -37 81 -110 232 -260 24 -24
46 -43 49 -43 10 0 86 -74 90 -89 3 -7 20 -15 39 -16 41 -3 95 -23 87 -32 -4
-3 -27 0 -53 6 -25 7 -48 10 -50 8 -2 -2 16 -24 40 -50 42 -46 44 -47 102 -47
41 0 69 -6 92 -20 36 -22 40 -16 15 20 -16 24 -16 24 0 11 21 -17 21 -13 1 34
-15 37 -11 63 6 35 28 -46 28 -46 46 -28 49 49 63 174 20 180 -18 3 -21 8 -18
43 3 32 1 38 -9 28 -21 -21 -66 -15 -132 18 -163 82 -278 185 -333 299 -25 53
-137 154 -172 157 -33 3 -72 30 -72 51 0 14 -2 14 -9 3 -7 -11 -10 -9 -14 10
-2 13 -5 -1 -6 -31z m198 -159 c22 -22 55 -81 46 -81 -28 0 -105 67 -105 91 0
16 40 9 59 -10z m142 -332 c-5 -23 -8 -47 -5 -51 3 -4 1 -8 -4 -8 -4 0 -16 16
-25 35 -20 42 -22 60 -3 25 l14 -24 13 43 c16 54 23 40 10 -20z m86 -148 c-2
-10 -11 0 -26 29 l-24 45 27 -29 c15 -15 25 -36 23 -45z m333 -25 c0 -27 -15
-42 -25 -26 -8 13 3 50 16 50 5 0 9 -11 9 -24z"/>
<path d="M4617 2063 c-21 -5 -18 -27 5 -31 9 -2 18 6 21 18 3 11 2 19 -1 19
-4 -1 -15 -3 -25 -6z"/>
<path d="M4380 2034 c-25 -29 -51 -37 -63 -20 -19 26 -70 5 -145 -60 -36 -31
-77 -61 -91 -66 -98 -39 -332 -82 -429 -80 l-72 2 6 -27 c4 -16 8 -30 10 -32
2 -2 23 6 47 18 52 25 57 26 57 6 0 -8 -6 -15 -13 -15 -30 0 -77 -32 -77 -51
0 -11 -4 -17 -10 -14 -5 3 -10 -1 -10 -9 0 -10 6 -13 15 -10 9 4 15 0 15 -10
0 -9 -4 -16 -9 -16 -12 0 -24 -37 -16 -50 11 -18 43 8 50 40 4 17 14 34 23 39
10 5 62 12 117 16 81 6 108 4 139 -9 21 -9 42 -16 47 -16 11 0 -12 42 -29 53
-9 6 -5 16 18 38 16 17 34 28 40 24 5 -3 22 1 37 9 16 8 22 15 16 16 -7 0 -13
7 -13 15 0 17 35 28 76 23 32 -4 46 -28 15 -28 -11 0 -23 -4 -26 -10 -4 -6 11
-10 39 -10 25 0 48 5 51 10 4 6 11 8 16 5 5 -4 9 -2 9 4 0 12 57 41 83 41 13
0 17 5 14 15 -5 11 -1 12 19 5 33 -13 64 -13 64 0 0 6 -7 10 -16 10 -10 0 -14
6 -11 14 3 8 1 17 -6 19 -17 6 2 24 36 32 28 8 35 -3 15 -23 -9 -9 -8 -12 5
-12 9 0 17 -5 17 -10 0 -14 91 -5 100 9 3 6 36 14 72 18 64 6 65 6 47 24 -11
11 -24 19 -30 19 -6 0 -8 9 -4 20 7 22 -14 26 -50 9 -19 -9 -19 -9 2 -5 15 2
20 0 16 -9 -3 -11 -22 -12 -76 -8 -87 7 -110 17 -102 44 8 24 -17 26 -35 3z
m-195 -154 c4 -6 -6 -10 -24 -10 -16 0 -33 5 -36 10 -4 6 6 10 24 10 16 0 33
-4 36 -10z m58 3 c-7 -2 -19 -2 -25 0 -7 3 -2 5 12 5 14 0 19 -2 13 -5z m-293
-63 c0 -5 -4 -10 -10 -10 -5 0 -10 5 -10 10 0 6 5 10 10 10 6 0 10 -4 10 -10z
m-27 -21 c29 1 37 -13 12 -23 -21 -8 -135 5 -135 15 0 13 24 18 60 13 19 -3
47 -5 63 -5z m-193 -9 c0 -5 -5 -10 -11 -10 -5 0 -7 5 -4 10 3 6 8 10 11 10 2
0 4 -4 4 -10z"/>
<path d="M4700 2030 c0 -5 19 -10 42 -10 49 0 47 5 -4 14 -24 4 -38 3 -38 -4z"/>
<path d="M4900 2011 c0 -6 18 -11 39 -11 22 0 51 -4 65 -10 15 -5 54 -14 87
-19 65 -11 169 -55 206 -88 12 -11 27 -32 33 -48 11 -28 11 -96 0 -105 -9 -8
-70 -116 -70 -126 0 -16 139 182 140 199 1 41 -58 111 -139 167 -29 20 -53 25
-150 31 -64 5 -137 11 -163 14 -32 5 -48 3 -48 -4z"/>
<path d="M4680 2001 c0 -5 10 -13 21 -16 14 -5 18 -10 10 -14 -8 -5 -4 -14 11
-29 20 -18 38 -21 138 -25 122 -5 180 3 125 17 -17 4 -33 13 -37 19 -4 6 -17
12 -30 13 -32 2 -92 13 -164 30 -71 17 -74 17 -74 5z"/>
<path d="M2301 1964 c0 -11 3 -14 6 -6 3 7 2 16 -1 19 -3 4 -6 -2 -5 -13z"/>
<path d="M7775 1942 c-11 -10 -29 -37 -39 -60 -18 -39 -18 -43 -3 -60 10 -10
17 -24 17 -30 0 -7 7 -12 15 -12 20 0 19 40 -1 55 -21 15 -9 41 26 58 29 15
34 28 17 50 -12 17 -13 17 -32 -1z"/>
<path d="M6047 1924 c-3 -3 -3 -13 0 -21 5 -12 7 -12 14 -1 15 23 4 40 -14 22z"/>
<path d="M6160 1896 c0 -14 21 -26 46 -26 22 0 16 16 -11 28 -33 15 -35 15
-35 -2z"/>
<path d="M3426 1842 c-4 -13 -5 -26 -2 -29 10 -11 18 4 14 29 l-4 23 -8 -23z"/>
<path d="M6010 1828 c0 -19 40 -81 47 -74 3 3 0 12 -7 21 -7 8 -10 25 -6 40 5
20 3 25 -14 25 -11 0 -20 -6 -20 -12z"/>
<path d="M7627 1813 c-11 -11 -8 -58 6 -75 12 -16 94 -48 122 -48 42 0 -59 79
-104 81 -9 0 -11 3 -5 5 7 3 10 14 7 24 -5 21 -15 25 -26 13z"/>
<path d="M4950 1792 c0 -5 7 -13 16 -16 10 -4 14 -1 12 6 -5 15 -28 23 -28 10z"/>
<path d="M4990 1780 c0 -4 7 -13 16 -21 13 -10 17 -10 25 2 14 22 11 27 -16
27 -14 0 -25 -4 -25 -8z"/>
<path d="M6838 1783 c7 -3 16 -2 19 1 4 3 -2 6 -13 5 -11 0 -14 -3 -6 -6z"/>
<path d="M7535 1760 c-8 -26 4 -48 16 -29 12 19 11 49 0 49 -5 0 -12 -9 -16
-20z"/>
<path d="M5046 1744 c-8 -31 8 -54 25 -37 13 13 8 55 -7 60 -7 2 -15 -8 -18
-23z"/>
<path d="M5500 1755 c0 -9 9 -15 21 -15 18 0 19 2 9 15 -7 8 -16 15 -21 15 -5
0 -9 -7 -9 -15z"/>
<path d="M6305 1761 c-3 -5 -1 -12 5 -16 13 -8 50 3 50 16 0 12 -47 12 -55 0z"/>
<path d="M3370 1725 c0 -28 15 -34 24 -9 10 25 7 34 -9 34 -9 0 -15 -9 -15
-25z"/>
<path d="M7165 1725 l-40 -13 35 -1 c19 0 44 6 54 14 25 19 7 19 -49 0z"/>
<path d="M5450 1700 c0 -5 12 -10 28 -10 21 0 24 2 12 10 -20 13 -40 13 -40 0z"/>
<path d="M5076 1678 c-3 -7 -7 -29 -9 -48 -3 -19 -8 -43 -12 -52 -4 -10 -3
-18 3 -18 12 0 42 77 42 108 0 23 -18 31 -24 10z"/>
<path d="M5380 1675 c-10 -13 -15 -13 -22 -3 -6 8 -8 0 -6 -22 l3 -35 59 -2
c63 -1 110 17 85 33 -8 4 -30 7 -51 5 -31 -2 -40 1 -46 19 -7 20 -9 20 -22 5z"/>
<path d="M7800 1673 c0 -4 8 -17 16 -28 15 -20 16 -20 12 4 -3 22 -28 44 -28
24z"/>
<path d="M4024 1625 c-10 -8 -34 -15 -52 -15 -18 0 -31 -4 -28 -9 6 -9 100 -6
117 4 14 9 11 35 -4 35 -7 0 -22 -7 -33 -15z"/>
<path d="M6151 1621 c-14 -9 -8 -15 31 -30 23 -9 25 -7 20 15 -4 25 -26 31
-51 15z"/>
<path d="M6770 1621 c-16 -5 -21 -9 -13 -14 12 -8 93 9 93 18 0 7 -51 4 -80
-4z"/>
<path d="M3820 1603 c-14 -3 -30 -9 -36 -14 -5 -4 -27 -6 -47 -2 -42 6 -107
-4 -107 -17 0 -13 111 -13 145 0 14 5 46 11 70 12 25 0 45 5 45 9 0 7 -27 20
-38 18 -4 -1 -18 -4 -32 -6z"/>
<path d="M5148 1562 c-52 -53 -71 -109 -45 -131 12 -10 31 -9 93 4 42 9 81 18
86 21 8 5 53 11 146 18 24 2 46 7 50 11 4 4 -47 5 -113 1 -154 -9 -165 -8
-182 6 -18 14 -9 74 14 101 35 38 -5 14 -49 -31z"/>
<path d="M6380 1600 c-12 -8 -11 -10 8 -10 12 0 22 5 22 10 0 13 -11 13 -30 0z"/>
<path d="M5240 1571 c-6 -12 -8 -27 -4 -33 5 -8 11 -1 16 17 9 36 3 44 -12 16z"/>
<path d="M5330 1580 c8 -5 28 -10 44 -10 39 0 30 6 -19 13 -27 4 -35 3 -25 -3z"/>
<path d="M4460 1560 c-18 -34 -1 -44 57 -32 27 5 37 10 24 11 -14 0 -35 10
-47 22 l-22 21 -12 -22z"/>
<path d="M4217 1553 c-11 -11 -8 -20 8 -20 8 0 15 6 15 14 0 14 -12 17 -23 6z"/>
<path d="M4368 1553 c-33 -8 -20 -33 16 -33 38 0 57 17 35 31 -15 9 -23 10
-51 2z"/>
<path d="M5675 1550 c-8 -13 5 -13 25 0 13 8 13 10 -2 10 -9 0 -20 -4 -23 -10z"/>
<path d="M4275 1540 c-16 -7 -17 -9 -3 -9 9 -1 20 4 23 9 7 11 7 11 -20 0z"/>
<path d="M5555 1540 c-26 -7 -23 -8 20 -8 28 0 59 3 70 8 26 11 -46 11 -90 0z"/>
<path d="M6425 1530 c-3 -5 1 -10 9 -10 8 0 18 5 21 10 3 6 -1 10 -9 10 -8 0
-18 -4 -21 -10z"/>
<path d="M5001 1459 c-15 -27 -21 -48 -17 -65 8 -32 25 -22 24 14 0 15 5 40
11 56 17 43 7 41 -18 -5z"/>
<path d="M6330 1461 c0 -5 -10 -12 -22 -16 -19 -6 -20 -8 -6 -12 10 -2 27 5
40 16 18 18 19 21 5 21 -9 0 -17 -4 -17 -9z"/>
<path d="M7322 1418 c-24 -11 -42 -22 -39 -24 5 -5 97 35 97 42 0 7 -14 3 -58
-18z"/>
<path d="M5010 1370 c0 -5 15 -10 33 -9 27 0 29 2 12 9 -28 12 -45 12 -45 0z"/>
<path d="M4693 1299 c-13 -26 -23 -59 -23 -73 0 -27 21 -47 28 -27 2 7 15 22
27 33 22 19 23 22 10 65 -8 25 -15 46 -17 48 -2 2 -13 -19 -25 -46z"/>
<path d="M4126 1311 c-4 -7 -5 -15 -2 -18 9 -9 19 4 14 18 -4 11 -6 11 -12 0z"/>
<path d="M5814 1288 c-4 -6 1 -17 11 -25 24 -17 34 -17 42 3 10 26 -38 47 -53
22z"/>
<path d="M5280 1280 c0 -13 11 -13 30 0 12 8 11 10 -7 10 -13 0 -23 -4 -23
-10z"/>
<path d="M5330 1279 c0 -5 5 -7 10 -4 6 3 10 8 10 11 0 2 -4 4 -10 4 -5 0 -10
-5 -10 -11z"/>
<path d="M3865 1269 c-9 -14 -2 -20 14 -10 8 6 9 11 3 15 -6 3 -14 1 -17 -5z"/>
<path d="M3345 1210 c-4 -6 -3 -14 0 -20 9 -15 35 -12 35 4 0 17 -27 29 -35
16z"/>
<path d="M4895 1141 c-10 -17 12 -21 25 -6 10 12 10 15 -3 15 -9 0 -18 -4 -22
-9z"/>
<path d="M5975 1132 c-5 -4 -11 -16 -13 -27 -2 -11 1 -16 5 -10 4 6 15 10 23
10 8 0 16 8 18 18 4 17 -15 23 -33 9z"/>
<path d="M4580 1110 c0 -7 -7 -10 -15 -6 -9 3 -15 0 -15 -8 0 -8 -10 -11 -29
-8 -16 2 -32 -1 -35 -7 -4 -6 1 -12 11 -13 32 -2 38 -4 58 -15 21 -11 35 -8
73 17 22 15 30 40 12 40 -5 0 -10 -5 -10 -10 0 -6 -11 -3 -25 6 -17 11 -25 13
-25 4z m20 -20 c0 -5 -4 -10 -10 -10 -5 0 -10 5 -10 10 0 6 5 10 10 10 6 0 10
-4 10 -10z"/>
<path d="M3363 1093 c-17 -6 -16 -23 1 -23 8 0 16 7 20 15 6 15 1 17 -21 8z"/>
<path d="M3930 1085 c-94 -35 -97 -37 -75 -45 12 -5 31 -1 50 8 17 9 57 24 90
33 l60 18 -45 -1 c-25 0 -61 -6 -80 -13z"/>
<path d="M3295 1060 c3 -5 8 -10 11 -10 2 0 4 5 4 10 0 6 -5 10 -11 10 -5 0
-7 -4 -4 -10z"/>
<path d="M4385 1040 c12 -19 60 -37 80 -30 15 5 10 10 -30 23 -57 20 -58 20
-50 7z"/>
<path d="M5070 1029 c0 -5 5 -7 10 -4 6 3 10 8 10 11 0 2 -4 4 -10 4 -5 0 -10
-5 -10 -11z"/>
<path d="M5237 1023 c-4 -3 -7 -11 -7 -17 0 -6 5 -5 12 2 6 6 9 14 7 17 -3 3
-9 2 -12 -2z"/>
<path d="M2748 1005 c13 -26 72 -82 72 -69 0 6 -19 28 -41 49 -23 22 -37 31
-31 20z"/>
<path d="M3755 1012 c-38 -7 -85 -33 -95 -52 -6 -11 -18 -20 -27 -20 -13 0
-13 -2 -2 -16 11 -13 10 -17 -3 -25 -69 -38 -51 -102 42 -155 54 -31 128 -56
141 -48 16 10 169 12 163 2 -3 -4 -18 -8 -35 -8 -19 0 -29 -5 -29 -15 0 -12
13 -15 55 -15 50 0 55 2 61 25 8 31 30 27 26 -4 -2 -22 -1 -23 97 -17 141 8
239 45 239 91 0 14 -6 25 -13 25 -7 0 -15 6 -18 14 -3 7 -20 16 -38 20 -42 8
-59 23 -59 51 0 28 -9 32 -91 34 -48 1 -90 -5 -145 -23 -104 -32 -344 -63
-344 -44 0 5 -5 6 -10 3 -6 -3 -13 1 -16 9 -3 9 -11 13 -18 9 -6 -3 -6 -1 2 8
6 7 12 20 12 29 0 9 14 24 30 33 17 10 30 22 30 28 0 5 4 9 10 9 9 0 64 50 58
54 -2 1 -12 1 -23 -2z"/>
<path d="M5123 1012 c-13 -2 -23 -7 -23 -12 0 -4 -7 -11 -16 -14 -10 -4 -13
-2 -8 6 5 8 2 9 -12 4 -10 -5 -37 -9 -59 -10 -49 -3 -139 -42 -130 -56 3 -5
13 -10 21 -10 8 0 29 -7 46 -16 27 -14 37 -14 72 -3 60 19 143 59 157 75 6 8
18 14 25 14 8 0 11 6 8 15 -6 14 -22 16 -81 7z m-54 -41 c11 -7 9 -10 -8 -16
-25 -8 -36 -2 -26 14 8 13 15 14 34 2z"/>
<path d="M4530 980 c-12 -8 -12 -10 2 -15 23 -9 50 -3 56 13 4 14 -36 16 -58
2z"/>
<path d="M3325 970 c-3 -6 1 -7 9 -4 18 7 21 14 7 14 -6 0 -13 -4 -16 -10z"/>
<path d="M3342 941 c-10 -6 -9 -10 7 -14 14 -3 21 0 21 9 0 16 -9 18 -28 5z"/>
<path d="M3071 921 c-14 -4 -26 -12 -28 -18 -5 -13 66 -53 91 -53 8 0 21 -9
30 -21 l14 -21 22 22 c28 28 23 49 -19 77 -34 23 -65 27 -110 14z"/>
<path d="M2842 909 c5 -18 95 -79 116 -79 8 0 -9 17 -39 38 -78 55 -82 57 -77
41z"/>
<path d="M5090 889 c-30 -11 -65 -23 -77 -26 -31 -7 -51 -32 -34 -42 10 -6 9
-10 -2 -14 -27 -10 -13 -42 17 -40 14 1 26 -2 26 -8 0 -14 39 -10 100 11 l55
20 -50 -4 c-41 -3 -47 -2 -33 8 10 7 42 18 73 25 48 11 55 15 50 32 -3 10 -8
28 -11 39 -7 26 -42 26 -114 -1z"/>
<path d="M4816 882 c-17 -7 -15 -10 12 -21 34 -14 92 -7 76 9 -14 14 -66 21
-88 12z"/>
<path d="M3325 870 c3 -5 8 -10 11 -10 2 0 4 5 4 10 0 6 -5 10 -11 10 -5 0 -7
-4 -4 -10z"/>
<path d="M4888 813 c7 -3 16 -2 19 1 4 3 -2 6 -13 5 -11 0 -14 -3 -6 -6z"/>
<path d="M3066 785 c5 -11 -1 -15 -22 -16 -27 0 -27 -1 -7 -9 24 -10 66 -2 58
11 -3 4 3 12 12 18 15 9 13 10 -14 11 -25 0 -31 -4 -27 -15z"/>
<path d="M3170 790 c-8 -5 -10 -10 -5 -10 6 0 17 5 25 10 8 5 11 10 5 10 -5 0
-17 -5 -25 -10z"/>
<path d="M5190 790 c0 -13 30 -13 50 0 11 7 7 10 -17 10 -18 0 -33 -4 -33 -10z"/>
<path d="M3122 766 c17 -12 118 -9 118 4 0 4 -30 7 -66 7 -49 -1 -62 -3 -52
-11z"/>
<path d="M4903 763 c-18 -7 -16 -23 2 -23 8 0 15 7 15 15 0 8 -1 15 -2 14 -2
0 -9 -3 -15 -6z"/>
<path d="M3575 720 c3 -5 18 -10 33 -9 24 0 25 1 7 9 -28 12 -47 12 -40 0z"/>
<path d="M3318 703 c7 -3 16 -2 19 1 4 3 -2 6 -13 5 -11 0 -14 -3 -6 -6z"/>
<path d="M3868 673 c7 -3 16 -2 19 1 4 3 -2 6 -13 5 -11 0 -14 -3 -6 -6z"/>
</g>
</svg>
