<?xml version="1.0" standalone="no"?>
<!DOCTYPE svg PUBLIC "-//W3C//DTD SVG 20010904//EN"
 "http://www.w3.org/TR/2001/REC-SVG-20010904/DTD/svg10.dtd">
<svg version="1.0" xmlns="http://www.w3.org/2000/svg"
 width="480.000000pt" height="360.000000pt" viewBox="0 0 480.000000 360.000000"
 preserveAspectRatio="xMidYMid meet">

<g transform="translate(0.000000,360.000000) scale(0.100000,-0.100000)"
fill="#000000" stroke="none">
<path d="M1645 3566 c-682 -226 -1036 -571 -1131 -1101 -12 -71 -18 -155 -18
-290 -1 -165 1 -195 17 -227 36 -71 34 -71 637 -79 297 -4 558 -12 588 -18
101 -20 117 -40 132 -168 20 -177 -18 -369 -110 -561 -128 -265 -302 -464
-545 -622 -196 -128 -241 -167 -220 -188 26 -26 308 37 491 111 331 134 595
359 816 697 86 131 214 386 297 593 l63 157 97 0 c53 -1 140 -5 194 -9 119
-10 130 -17 197 -151 59 -118 126 -207 198 -266 181 -147 403 -175 612 -77 58
28 93 54 155 117 90 91 130 161 166 291 30 108 30 286 1 396 -79 296 -319 491
-605 491 -164 0 -275 -42 -385 -147 -81 -76 -126 -148 -168 -269 l-31 -91 -89
-8 c-49 -4 -485 -6 -969 -5 -829 3 -882 4 -922 21 -57 25 -67 58 -58 185 14
199 70 373 176 548 107 178 247 325 474 502 104 81 139 114 137 128 -4 25 -57
74 -80 73 -9 0 -62 -15 -117 -33z m2161 -1251 c59 -26 111 -91 149 -183 31
-77 39 -142 26 -221 -45 -278 -311 -362 -498 -158 -74 81 -96 146 -91 262 5
107 35 179 100 245 90 90 194 108 314 55z"/>
<path d="M2309 3575 c-45 -25 -110 -122 -236 -360 -41 -77 -126 -228 -188
-335 -128 -221 -143 -257 -129 -297 18 -52 56 -58 365 -56 440 3 712 24 781
59 36 19 36 44 -2 106 -17 27 -101 183 -186 346 -195 372 -238 444 -295 504
-48 50 -67 56 -110 33z m227 -613 c41 -79 74 -152 74 -161 0 -30 -22 -40 -106
-52 -87 -11 -477 -38 -483 -33 -3 3 229 434 297 552 l24 43 61 -103 c33 -57
93 -167 133 -246z"/>
<path d="M2850 1221 c-34 -34 -45 -70 -33 -107 28 -83 161 -92 193 -13 17 40
4 84 -36 119 -45 39 -86 40 -124 1z"/>
<path d="M2533 788 c-27 -13 -46 -66 -38 -101 22 -86 143 -95 187 -14 15 29 1
83 -27 101 -32 21 -95 28 -122 14z"/>
<path d="M2097 369 c-32 -25 -51 -87 -38 -122 30 -79 161 -76 186 4 12 36 -4
86 -36 113 -37 31 -77 33 -112 5z"/>
<path d="M1545 198 c-29 -16 -35 -28 -35 -71 0 -110 95 -164 166 -93 73 73 23
177 -84 176 -15 0 -36 -6 -47 -12z"/>
</g>
</svg>
