<?xml version="1.0" standalone="no"?>
<!DOCTYPE svg PUBLIC "-//W3C//DTD SVG 20010904//EN"
 "http://www.w3.org/TR/2001/REC-SVG-20010904/DTD/svg10.dtd">
<svg version="1.0" xmlns="http://www.w3.org/2000/svg"
 width="512.000000pt" height="512.000000pt" viewBox="0 0 512.000000 512.000000"
 preserveAspectRatio="xMidYMid meet">

<g transform="translate(0.000000,512.000000) scale(0.100000,-0.100000)"
fill="#000000" stroke="none">
<path d="M2340 4903 c-1216 -124 -2130 -1130 -2130 -2343 0 -1149 828 -2127
1965 -2321 156 -27 457 -36 621 -20 284 29 541 103 799 230 264 131 451 267
655 478 335 345 545 756 632 1240 20 113 23 160 23 393 0 233 -3 280 -23 393
-87 484 -297 895 -632 1240 -391 404 -887 647 -1442 707 -90 9 -387 12 -468 3z
m-545 -740 c108 -54 2469 -1404 2504 -1432 19 -15 49 -44 65 -65 28 -34 31
-45 31 -106 0 -61 -3 -72 -31 -106 -16 -21 -46 -50 -65 -65 -33 -27 -2385
-1372 -2504 -1433 -50 -25 -72 -30 -132 -31 -57 0 -77 4 -100 21 -51 38 -82
94 -93 169 -16 105 -9 2898 8 2945 16 47 68 109 106 126 48 22 141 12 211 -23z"/>
</g>
</svg>
